<?xml version="1.0" encoding="utf-8"?>
<!-- Generator: Adobe Illustrator 24.3.0, SVG Export Plug-In . SVG Version: 6.00 Build 0)  -->
<svg version="1.1" id="Layer_1" xmlns="http://www.w3.org/2000/svg" xmlns:xlink="http://www.w3.org/1999/xlink" x="0px" y="0px"
	 viewBox="0 0 500 500" style="enable-background:new 0 0 500 500;" xml:space="preserve">
<style type="text/css">
	.st0{fill:#FFAD9D;}
	.st1{fill:#E08880;}
	.st2{fill:#60A9D0;}
	.st3{fill:#5996BF;}
	.st4{fill:#FFA755;}
	.st5{fill:#EC894B;}
	.st6{fill:#FFFFFF;}
	.st7{fill:#352836;}
	.st8{opacity:0.3;fill:#352836;}
	.st9{fill:#A9534F;}
	.st10{fill:#853F38;}
</style>
<g>
	<g>
		<g>
			<path class="st0" d="M302.39,335.66c-23.78-12.97-17.3-75.69-17.3-75.69l-35.62,2.3v-2.29l-3.81,1.14l-3.81-1.14v2.29l-35.62-2.3
				c0,0,6.49,62.71-17.3,75.69C165.15,348.63,24.6,355.12,39.74,499.99h202.11h7.62h202.11
				C466.72,355.12,326.17,348.63,302.39,335.66z"/>
			<path class="st1" d="M201.23,319.48c28.45-4.24,56.89-8.62,85.3-13.13c-4-21.62-1.44-46.38-1.44-46.38l-35.62,2.3v-2.29
				l-3.81,1.14l-3.81-1.14v2.29l-35.62-2.3C206.23,259.97,209.98,296.41,201.23,319.48z"/>
		</g>
		<g>
			<g>
				<path class="st2" d="M324.94,342.86c-21.12,12.33-49.25,19.87-80.14,19.87c-30.63,0-58.54-7.4-79.6-19.55
					c-47.07,12.68-137.78,38.96-125.46,156.8h202.11h7.62h202.11C464,381.14,371.65,355.43,324.94,342.86z"/>
				<path class="st3" d="M421.95,392.59c-18.91,9.08-39.82,12.16-60.55,18.6c-29.3,9.11-58.7,17.87-88.19,26.32
					c-59.12,16.93-118.52,32.86-177.9,48.81c-16.94,4.55-33.87,9.11-50.8,13.67h407.08C456.88,449.3,443.09,415.6,421.95,392.59z"/>
			</g>
			<g>
				<g>
					<path class="st4" d="M148.63,347.87C99.76,362.61,28.75,394.83,39.74,499.98h167.82L148.63,347.87z"/>
					<path class="st4" d="M341.51,347.51l-26.77,152.47h136.85C462.66,393.97,390.4,362.08,341.51,347.51z"/>
				</g>
				<path class="st5" d="M192.8,499.98h14.76l-58.93-152.12c-12.57,3.79-26.61,8.76-40.34,15.81L192.8,499.98z"/>
				<path class="st5" d="M341.51,347.51l-26.77,152.47h12.31l70.58-127.84C379.15,360.07,358.86,352.68,341.51,347.51z"/>
			</g>
		</g>
	</g>
	<g>
		<g>
			<path class="st1" d="M176.02,168.18c-7.01-21.74-23.6-16.71-25.16-16.18c-1.63,0.19-18.78,2.74-15.82,25.39
				c2.98,22.78,16.2,35.13,28.6,31.51C176.4,206.86,183.07,190.05,176.02,168.18z"/>
			<path class="st1" d="M315.95,168.18c7.01-21.74,23.6-16.71,25.16-16.18c1.63,0.19,18.78,2.74,15.82,25.39
				c-2.98,22.78-16.2,35.13-28.6,31.51C315.56,206.86,308.9,190.05,315.95,168.18z"/>
			<path class="st0" d="M159.02,135.24c8.68-95.31,81.14-89.97,87.98-89.26c6.83-0.72,79.29-6.06,87.98,89.26
				c8.74,95.88-33.97,158.5-87.98,155.06C192.98,293.74,150.28,231.12,159.02,135.24z"/>
		</g>
		<g>
			<g>
				<path class="st1" d="M259.49,180.09c1.47,4.6,2.64,9.25,3.72,13.93c0.52,2.34,1.05,4.68,1.51,7.04
					c0.48,2.35,0.92,4.71,1.33,7.08l0.06,0.36l-0.24,0.23c-1.87,1.85-3.76,3.69-5.66,5.51c-1.91,1.81-3.82,3.63-5.78,5.39
					c1.69-2.03,3.43-4,5.18-5.97c1.75-1.96,3.52-3.92,5.3-5.85l-0.17,0.6c-0.57-2.33-1.12-4.67-1.63-7.02
					c-0.52-2.34-0.98-4.7-1.44-7.05C260.79,189.62,259.99,184.89,259.49,180.09z"/>
			</g>
			<path class="st6" d="M283.93,236.76c-17.25,16.77-46.47,15.84-68.61,0.9"/>
			<g>
				<path class="st7" d="M315.33,147.77c-3.31-2.95-6.85-5.53-10.62-7.6c-1.9-1-3.83-1.92-5.84-2.57c-2-0.68-4.05-1.15-6.13-1.3
					c-4.14-0.41-8.33,0.42-12.18,2.2c-3.84,1.81-7.36,4.44-10.69,7.37c2.48-3.68,5.75-6.92,9.72-9.25c1.99-1.14,4.15-2.04,6.43-2.56
					c2.28-0.5,4.64-0.65,6.96-0.46c4.67,0.42,9.05,2.25,12.81,4.77C309.55,140.9,312.85,144.07,315.33,147.77z"/>
			</g>
			<g>
				<path class="st7" d="M225.07,147.77c-3.31-2.95-6.85-5.53-10.62-7.6c-1.9-1-3.83-1.92-5.84-2.57c-2-0.68-4.05-1.15-6.13-1.3
					c-4.14-0.41-8.33,0.42-12.18,2.2c-3.84,1.81-7.36,4.44-10.69,7.37c2.49-3.68,5.75-6.92,9.72-9.25c1.99-1.14,4.15-2.04,6.43-2.56
					c2.28-0.5,4.64-0.65,6.96-0.46c4.67,0.42,9.05,2.25,12.81,4.77C219.29,140.9,222.58,144.07,225.07,147.77z"/>
			</g>
			<g>
				<path class="st7" d="M222.2,182.31c-0.34-2.07-0.88-4.09-1.65-6.01c-0.74-1.93-1.72-3.77-3-5.35c-1.28-1.57-2.83-2.93-4.64-3.78
					c-1.79-0.89-3.8-1.29-5.82-1.32c-1.01-0.03-2.03,0.05-3.02,0.18c-0.99,0.18-1.96,0.43-2.88,0.81c-1.83,0.77-3.42,2.06-4.59,3.71
					c-1.18,1.64-1.95,3.58-2.44,5.58c-0.52,2-0.74,4.09-0.75,6.18c-0.44-4.14,0.1-8.58,2.43-12.28c1.14-1.85,2.91-3.32,4.9-4.23
					c1.01-0.45,2.07-0.72,3.14-0.93c1.08-0.16,2.15-0.25,3.23-0.22c2.16,0.05,4.35,0.49,6.3,1.51c1.95,0.99,3.62,2.49,4.87,4.23
					C220.8,173.9,221.98,178.14,222.2,182.31z"/>
			</g>
			<g>
				<path class="st7" d="M303.31,181c-0.34-2.07-0.88-4.09-1.65-6.01c-0.74-1.93-1.72-3.77-3-5.35c-1.28-1.57-2.83-2.93-4.64-3.78
					c-1.79-0.89-3.8-1.29-5.82-1.32c-1.01-0.03-2.03,0.05-3.02,0.18c-0.99,0.18-1.96,0.43-2.88,0.81c-1.83,0.77-3.42,2.06-4.59,3.71
					c-1.18,1.64-1.95,3.58-2.44,5.58c-0.52,2-0.74,4.09-0.75,6.18c-0.44-4.14,0.1-8.58,2.43-12.28c1.14-1.85,2.91-3.32,4.9-4.23
					c1.01-0.45,2.07-0.72,3.14-0.93c1.08-0.16,2.15-0.25,3.23-0.22c2.16,0.05,4.35,0.49,6.3,1.51c1.95,0.99,3.62,2.49,4.87,4.23
					C301.91,172.6,303.09,176.83,303.31,181z"/>
			</g>
		</g>
		<g>
			<path class="st8" d="M116.75,149.53c4.08-3.52,9.37-7.4,12.89-13.76c0.94-1.53,1.47-3.3,2.23-5c0.43-1.79,1.01-3.61,1.31-5.49
				c0.2-1.88,0.53-3.8,0.59-5.76c0.01-1.97,0.02-3.96,0.03-5.98c-0.16-1.93-0.32-3.89-0.48-5.87l-0.12-1.49
				c-0.03-0.46,0-0.19-0.01-0.56l0.01-0.71c0.03-0.97,0.07-1.96,0.13-2.95c0.26-3.97,0.67-8.03,1.4-12.08
				c0.72-4.04,1.72-8.1,3.24-11.9c0.4-0.93,0.75-1.91,1.25-2.77c0.46-0.9,0.92-1.82,1.44-2.51l0.73-1.15l1.08-1.25l0.54-0.63
				l0.14-0.16l0.02-0.02l0.22-0.2l1.22-1.13c2.01-1.76,4.39-3.37,6.88-4.79c-0.04-2.07-0.04-4.15,0.01-6.24
				c-3.79,1.94-7.29,4.15-10.57,7.05l-1.21,1.14l-0.3,0.28l-0.27,0.29l-0.2,0.24l-0.54,0.63l-1.08,1.27l-1.07,1.62
				c-0.76,1.1-1.25,2.16-1.77,3.22c-0.57,1.05-0.94,2.15-1.37,3.22c-1.61,4.32-2.57,8.69-3.24,12.98c-0.65,4.3-1.05,8.53-1.14,12.69
				c-0.03,1.04-0.04,2.08-0.03,3.12l0.02,0.79c-0.01,0.13,0.04,0.9,0.05,0.94l0.17,1.49c0.23,1.98,0.46,3.93,0.69,5.85
				c0.45,7.34,0.09,14.68-2.85,20.35c-2.82,5.74-7.51,9.83-11.44,13.71c-3.95,3.87-7.16,7.64-9.09,11.16
				c-1.13,1.66-1.74,3.35-2.4,4.75c-0.7,1.38-1.02,2.67-1.36,3.67c-0.65,2.02-0.99,3.09-0.99,3.09s0.44-1.04,1.27-2.98
				c0.76-1.96,2.21-4.72,4.39-7.94C109.28,156.45,112.6,153.06,116.75,149.53z"/>
			<g>
				<path class="st9" d="M296.21,53.34c0,0,31.78,0.93,42.06,40.19c10.28,39.26-0.93,46.73-0.93,78.51c0,0,0,19.63-4.67,26.17
					l-6.54-64.49C326.12,133.73,282.19,110.36,296.21,53.34z"/>
				<g>
					<path class="st10" d="M238.88,0.74c-5.31-0.77-11.01-1.15-17.02,0c-4.01,0.72-8.1,2.13-11.86,4.35
						c-3.79,2.18-7.08,5.24-9.97,8.55c-5.79,6.68-10.15,14.35-15.4,21.19c-5.16,6.91-11.61,12.76-19.35,16.39
						c-1.96,0.97-3.81,1.64-6.03,2.5c-2.1,0.8-4.19,1.58-6.39,2.68c-4.32,2.11-8.25,4.5-11.92,7.75l-1.21,1.14l-0.3,0.28l-0.27,0.29
						l-0.07,0.08l-0.13,0.16l-0.54,0.63l-1.08,1.27l-1.07,1.62c-0.76,1.1-1.25,2.16-1.77,3.22c-0.57,1.05-0.94,2.15-1.37,3.22
						c-1.61,4.32-2.57,8.69-3.24,12.98c-0.65,4.3-1.05,8.53-1.14,12.69c-0.03,1.04-0.04,2.08-0.03,3.12l0.02,0.79
						c-0.01,0.13,0.04,0.9,0.05,0.94l0.17,1.49c0.23,1.98,0.46,3.93,0.69,5.85c0.45,7.34,0.09,14.68-2.85,20.35
						c-2.82,5.74-7.51,9.83-11.44,13.71c-3.95,3.87-7.16,7.64-9.09,11.16c-1.13,1.66-1.74,3.35-2.4,4.75
						c-0.7,1.38-1.02,2.67-1.36,3.67c-0.65,2.02-0.99,3.09-0.99,3.09s0.44-1.04,1.27-2.98c0.76-1.96,2.21-4.72,4.39-7.94
						c2.12-3.29,5.44-6.67,9.59-10.21c4.08-3.52,9.37-7.4,12.89-13.76c0.94-1.53,1.47-3.3,2.23-5c0.43-1.79,1.01-3.61,1.31-5.49
						c0.2-1.88,0.53-3.8,0.59-5.76c0.01-1.97,0.02-3.96,0.03-5.98c-0.16-1.93-0.32-3.89-0.48-5.87l-0.12-1.49
						c-0.03-0.46,0-0.19-0.01-0.56l0.01-0.71c0.03-0.97,0.07-1.96,0.13-2.95c0.26-3.97,0.67-8.03,1.4-12.08
						c0.72-4.04,1.72-8.1,3.24-11.9c0.4-0.93,0.75-1.91,1.25-2.77c0.46-0.9,0.92-1.82,1.44-2.51l0.73-1.15l1.08-1.25l0.54-0.63
						l0.14-0.16l0.02-0.02l0.22-0.2l1.22-1.13c2.28-2,5.04-3.82,7.89-5.36c-1.29,0.83-2.52,1.68-3.65,2.56
						c-0.59,0.45-1.17,0.92-1.73,1.4c-0.21,0.19-0.45,0.37-0.65,0.56c-0.75,0.69-1.48,1.41-2.18,2.18
						c-10.16,10.86-8.96,38.31-8.84,39.02c7.48,43-18.69,34.58-27.11,65.43s33.21,50.86,23.37,61.69
						c-18.69,20.56-28.04-6.54-28.04-6.54c-3.74,15.89,13.09,39.26,33.65,36.45c19.46-2.65,40.58-17.88,33.28-49.62
						c0.02,0.05,0.04,0.1,0.06,0.15l2.18,5.2c0.65,1.64,1.44,3.25,1.99,4.92l1.53,5.05l1.01,5.15c0.1,1.72,0.36,3.47,0.36,5.2
						c-0.15,1.71,0.02,3.49-0.38,5.18c-0.28,1.71-0.55,3.43-1.17,5.06c-0.43,1.7-1.19,3.26-1.92,4.86c-1.6,3.11-3.62,6.08-6.19,8.58
						c-2.44,2.63-5.39,4.8-8.5,6.71c-3.12,1.91-6.5,3.38-10.03,4.61c3.62-0.75,7.28-1.71,10.72-3.3c3.4-1.6,6.75-3.5,9.66-6.02
						c2.99-2.42,5.51-5.44,7.62-8.73c0.97-1.7,2.01-3.39,2.65-5.26c0.82-1.81,1.29-3.72,1.75-5.65c0.57-1.91,0.56-3.9,0.86-5.86
						c0.14-1.97,0.01-3.93,0.02-5.91c-0.2-1.95-0.47-3.89-0.74-5.84c-0.42-1.9-0.93-3.78-1.4-5.68c-0.51-1.88-1.26-3.66-1.89-5.5
						l-1.85-5.17c-0.3-0.87-0.65-1.76-0.91-2.6l-0.53-2.38c-0.47-1.58-0.52-3.14-0.65-4.7c0.01-3.05,0.79-5.54,2.72-7.94
						c1.88-2.43,4.78-4.79,7.51-7.67c1.39-1.35,2.69-3.02,3.93-4.61c1.11-1.75,2.38-3.41,3.19-5.34l1.34-2.81l0.96-2.93
						c0.29-0.98,0.67-1.95,0.89-2.94l0.55-2.97l0.53-2.97l0.21-2.95l0.35-5.64l0.3-5.56c0.11-1.83,0.09-3.77,0.42-5.42
						c0.55-3.42,0.83-6.87,1.86-10.25c0.49-1.67,0.72-3.46,1.41-5.05l1.71-4.63l1.68-2.44l2.1-2.4c0.8-0.68,1.56-1.41,2.38-2.07
						c0.89-0.56,1.74-1.2,2.66-1.72c0.97-0.44,1.91-0.96,2.91-1.37l3.12-1.03l3.29-0.69c1.11-0.18,2.27-0.25,3.4-0.38l7.49-0.82
						l3.69-0.44c1.25-0.18,2.56-0.54,3.83-0.81c2.54-0.64,5.16-1.02,7.6-1.89l7.29-2.6l0.95-0.48c37.43-7.91,44.83-40.6,44.83-40.6
						C305.36,41.94,281.37,3.73,238.88,0.74z M184.91,174.79c-1.35,2.98-3.34,5.56-5.64,8.15c-2.26,2.6-5.13,5-7.74,8.51
						c-0.69,0.77-1.2,1.87-1.78,2.83c-0.62,0.94-0.95,2.09-1.31,3.2l-0.51,1.67l-0.17,1.7c-0.05,1.11-0.33,2.31-0.13,3.35
						c0.05,0.44,0.09,0.87,0.13,1.31c-5.11-21.7,9.08-20.42,18.53-34.01l-0.33,1.08L184.91,174.79z"/>
					<path class="st8" d="M175.89,133.47c-16.89-21.37-23.87-45.29-24.4-70c-0.91,0.61-1.83,1.21-2.64,1.85
						c-0.59,0.45-1.17,0.92-1.73,1.4c-0.21,0.19-0.45,0.37-0.65,0.56c-0.75,0.69-1.48,1.41-2.18,2.18
						c-10.16,10.86-8.96,38.31-8.84,39.02c7.48,43-18.69,34.58-27.11,65.43s33.21,50.86,23.37,61.69
						c-18.69,20.56-28.04-6.54-28.04-6.54c-3.74,15.89,13.09,39.26,33.65,36.45c19.46-2.65,40.58-17.88,33.28-49.62
						c0.02,0.05,0.04,0.1,0.06,0.15l2.18,5.2c0.65,1.64,1.44,3.25,1.99,4.92l1.53,5.05l1.01,5.15c0.1,1.72,0.36,3.47,0.36,5.2
						c-0.15,1.71,0.02,3.49-0.38,5.18c-0.28,1.71-0.55,3.43-1.17,5.06c-0.43,1.7-1.19,3.26-1.92,4.86c-1.6,3.11-3.62,6.08-6.19,8.58
						c-2.44,2.63-5.39,4.8-8.5,6.71c-3.12,1.91-6.5,3.38-10.03,4.61c3.62-0.75,7.28-1.71,10.72-3.3c3.4-1.6,6.75-3.5,9.66-6.02
						c2.99-2.42,5.51-5.44,7.62-8.73c0.97-1.7,2.01-3.39,2.65-5.26c0.82-1.81,1.29-3.72,1.75-5.65c0.57-1.91,0.56-3.9,0.86-5.86
						c0.14-1.97,0.01-3.93,0.02-5.91c-0.2-1.95-0.47-3.89-0.74-5.84c-0.42-1.9-0.93-3.78-1.4-5.68c-0.51-1.88-1.26-3.66-1.89-5.5
						l-1.85-5.17c-0.3-0.87-0.65-1.76-0.91-2.6l-0.53-2.38c-0.47-1.58-0.52-3.14-0.65-4.7c0.01-3.05,0.79-5.54,2.72-7.94
						c1.88-2.43,4.78-4.79,7.51-7.67c1.39-1.35,2.69-3.02,3.93-4.61c1.11-1.75,2.38-3.41,3.19-5.34l1.34-2.81l0.96-2.93
						c0.29-0.98,0.67-1.95,0.89-2.94l0.55-2.97l0.53-2.97l0.21-2.95l0.34-5.5C189.32,148.87,182.21,141.48,175.89,133.47z
						 M185.96,172.58l-1.04,2.21c-1.35,2.98-3.34,5.56-5.64,8.15c-2.26,2.6-5.13,5-7.74,8.51c-0.69,0.77-1.2,1.87-1.78,2.83
						c-0.62,0.94-0.95,2.09-1.31,3.2l-0.51,1.67l-0.17,1.7c-0.05,1.11-0.33,2.31-0.13,3.35c0.05,0.44,0.09,0.87,0.13,1.31
						c-5.11-21.7,9.08-20.42,18.53-34.01L185.96,172.58z"/>
				</g>
			</g>
		</g>
	</g>
</g>
</svg>
