<?xml version="1.0" encoding="utf-8"?>
<!-- Generator: Adobe Illustrator 24.3.0, SVG Export Plug-In . SVG Version: 6.00 Build 0)  -->
<svg version="1.1" id="Layer_1" xmlns="http://www.w3.org/2000/svg" xmlns:xlink="http://www.w3.org/1999/xlink" x="0px" y="0px"
	 viewBox="0 0 500 500" style="enable-background:new 0 0 500 500;" xml:space="preserve">
<style type="text/css">
	.st0{fill:#853F38;}
	.st1{fill:#A9534F;}
	.st2{fill:#FFAD9D;}
	.st3{fill:#E08880;}
	.st4{fill:#438584;}
	.st5{fill:#5CA9A5;}
	.st6{fill:#352836;}
	.st7{fill:#FFFFFF;}
</style>
<g>
	<g>
		<g>
			<path class="st0" d="M207.22,284.67c0,0-43.86,27.65-20.02,69.6c23.84,41.95,188.78,30.51,103.93-69.6
				C221.03,201.97,207.22,284.67,207.22,284.67z"/>
		</g>
		<g>
			<path class="st0" d="M367.74,177.88c0,0-19.07,22.88-15.26,45.77c5.49,32.93-44.81,76.28-96.3,61.97
				c-51.49-14.3,3.81-110.6,3.81-110.6L367.74,177.88z"/>
			<path class="st0" d="M127.13,177.88c0,0,19.07,22.88,15.26,45.77c-5.49,32.93,44.81,76.28,96.3,61.97
				c51.49-14.3-3.81-110.6-3.81-110.6L127.13,177.88z"/>
			<path class="st1" d="M257.98,249.91c23.71,0.32,47.34-3.89,68.65-14.81c11.27-5.78,19-13.7,25.68-22.63
				c2.15-18.6,15.42-34.59,15.42-34.59L260,175.02c0,0-23.45,40.85-25.57,73.3C242.32,249.24,250.19,249.8,257.98,249.91z"/>
			<path class="st1" d="M142.81,219.65c35.14,18.67,76.17,29.73,115.17,30.25c0.85,0.01,1.7-0.03,2.54-0.03
				c-1.45-32.68-25.66-74.86-25.66-74.86l-107.74,2.86C127.13,177.88,144.03,198.18,142.81,219.65z"/>
		</g>
	</g>
	<g>
		<g>
			<path class="st2" d="M305.06,332.38c-24.26-13.23-17.64-77.2-17.64-77.2l-36.33,2.34v-2.33l-3.89,1.17l-3.89-1.17v2.33
				l-36.33-2.34c0,0,6.62,63.97-17.64,77.2C165.06,345.61,15.97,352.23,31.41,500H243.3h7.78h211.89
				C478.41,352.23,329.32,345.61,305.06,332.38z"/>
			<path class="st3" d="M201.87,315.87c29.02-4.33,58.03-8.79,87.01-13.39c-4.08-22.06-1.47-47.31-1.47-47.31l-36.34,2.34v-2.33
				l-3.89,1.17l-3.89-1.17v2.33l-36.34-2.34C206.97,255.17,210.8,292.34,201.87,315.87z"/>
		</g>
		<g>
			<path class="st4" d="M354.4,343.76c-21.24,19.24-52.58,32.58-88.36,36.02l-19.27,69.38l-10.2-68.83
				c-38.77-2.24-72.91-16.05-95.57-36.57C90.63,359.9,17.03,394.9,28.01,500h215.73h7.92H467.4
				C478.38,394.9,404.78,359.9,354.4,343.76z"/>
			<g>
				<path class="st5" d="M239.19,397.98l-2.61-17.65c-38.77-2.24-72.91-16.05-95.57-36.57c-8.56,2.74-17.63,6.05-26.73,10.13
					C132.15,378.18,180.78,396.05,239.19,397.98z"/>
				<path class="st5" d="M384.09,355.23c-10.09-4.72-20.2-8.43-29.69-11.47c-21.24,19.24-52.58,32.58-88.36,36.02L261,397.95
					C317.97,395.92,365.53,378.72,384.09,355.23z"/>
			</g>
			<path class="st5" d="M242.4,465.92c0,4.43,3.59,8.01,8.01,8.01s8.01-3.59,8.01-8.01c0-4.43-3.59-8.01-8.01-8.01
				S242.4,461.49,242.4,465.92z"/>
		</g>
	</g>
	<g>
		<g>
			<g>
				<path class="st3" d="M176.15,161.54c-7.15-22.18-24.08-17.04-25.66-16.51c-1.66,0.19-19.16,2.79-16.14,25.9
					c3.04,23.24,16.53,35.84,29.17,32.14C176.54,201,183.34,183.85,176.15,161.54z"/>
				<path class="st3" d="M318.88,161.54c7.15-22.18,24.08-17.04,25.66-16.51c1.66,0.19,19.16,2.79,16.14,25.9
					c-3.04,23.24-16.53,35.84-29.17,32.14C318.5,201,311.69,183.85,318.88,161.54z"/>
				<path class="st2" d="M158.81,127.94c8.86-97.22,82.77-91.78,89.74-91.05c6.97-0.73,80.88-6.18,89.74,91.05
					c8.91,97.8-34.65,161.68-89.74,158.17C193.46,289.62,149.89,225.74,158.81,127.94z"/>
			</g>
			<g>
				<path class="st1" d="M155.74,146.42c0,0-4.77,127.76,70.55,142.06c75.32,14.3,122.04-48.63,115.37-148.74l-9.53-0.95
					c0,0-6.2,101.06-29.08,102.02c-22.88,0.95,10.96-31.46-32.89-33.37c-43.86-1.91-65.56-16.53-69.12,20.5
					c-2.38,24.79-32.89-17.64-36.71-83.43C160.5,78.72,155.74,146.42,155.74,146.42z"/>
				<path class="st0" d="M167.93,173.87c-1.73-9.08-3.01-18.93-3.61-29.36c-3.81-65.79-8.58,1.91-8.58,1.91s-0.52,13.87,1.48,32.97
					C160.8,177.57,164.36,175.72,167.93,173.87z"/>
				<path class="st0" d="M341.74,174.72c0.74-11.06,0.73-22.73-0.09-34.97l-9.53-0.95c0,0-0.85,13.84-3.08,31.32
					C333.29,171.62,337.52,173.15,341.74,174.72z"/>
			</g>
		</g>
		<g>
			<g>
				<path class="st3" d="M261.29,139.34c0.74,4.52,1.43,9.04,2.02,13.57c0.63,4.53,1.23,9.06,1.77,13.6
					c0.53,4.54,1.07,9.08,1.54,13.62c0.49,4.54,0.94,9.09,1.35,13.64l0.04,0.41l-0.32,0.21l-8.59,5.6c-2.9,1.82-5.76,3.68-8.69,5.45
					c2.71-2.09,5.48-4.09,8.21-6.14l8.32-5.99l-0.28,0.61c-0.6-4.53-1.15-9.07-1.66-13.61c-0.54-4.54-1-9.09-1.47-13.63
					c-0.47-4.55-0.87-9.1-1.25-13.66C261.88,148.47,261.56,143.91,261.29,139.34z"/>
			</g>
			<g>
				<path class="st6" d="M318.25,132.13c-3.37-3.02-6.98-5.65-10.82-7.77c-1.94-1.03-3.9-1.96-5.96-2.63
					c-2.04-0.7-4.14-1.18-6.25-1.33c-4.23-0.42-8.51,0.43-12.43,2.26c-3.92,1.86-7.51,4.54-10.89,7.54
					c2.54-3.75,5.88-7.04,9.92-9.41c2.03-1.16,4.23-2.07,6.55-2.6c2.32-0.51,4.72-0.66,7.09-0.47c4.76,0.43,9.23,2.29,13.06,4.85
					C312.35,125.14,315.71,128.37,318.25,132.13z"/>
			</g>
			<g>
				<path class="st6" d="M226.18,132.13c-3.37-3.02-6.98-5.65-10.82-7.77c-1.94-1.03-3.9-1.96-5.96-2.63
					c-2.04-0.7-4.14-1.18-6.25-1.33c-4.23-0.42-8.51,0.43-12.43,2.26c-3.92,1.86-7.51,4.54-10.89,7.54
					c2.54-3.75,5.88-7.04,9.92-9.41c2.03-1.16,4.23-2.07,6.55-2.6c2.32-0.51,4.72-0.66,7.09-0.47c4.76,0.43,9.23,2.29,13.06,4.85
					C220.28,125.14,223.64,128.37,226.18,132.13z"/>
			</g>
			<g>
				<path class="st6" d="M223.26,167.37c-0.34-2.11-0.89-4.17-1.68-6.13c-0.76-1.97-1.75-3.84-3.06-5.46
					c-1.31-1.6-2.88-2.99-4.74-3.86c-1.83-0.91-3.88-1.32-5.94-1.35c-1.03-0.03-2.07,0.05-3.08,0.18c-1.01,0.18-2,0.44-2.94,0.83
					c-1.87,0.79-3.5,2.11-4.69,3.79c-1.2,1.68-1.99,3.65-2.48,5.7c-0.53,2.04-0.75,4.17-0.76,6.3c-0.44-4.22,0.11-8.75,2.48-12.52
					c1.16-1.89,2.97-3.38,5-4.31c1.02-0.46,2.11-0.74,3.2-0.94c1.1-0.16,2.19-0.25,3.3-0.23c2.2,0.05,4.44,0.5,6.42,1.53
					c1.99,1.01,3.69,2.53,4.96,4.31C221.82,158.79,223.03,163.11,223.26,167.37z"/>
			</g>
			<g>
				<path class="st6" d="M306,166.03c-0.34-2.11-0.89-4.17-1.68-6.13c-0.76-1.97-1.75-3.84-3.06-5.46c-1.31-1.6-2.88-2.99-4.74-3.86
					c-1.83-0.91-3.88-1.32-5.94-1.35c-1.03-0.03-2.07,0.05-3.08,0.18c-1.01,0.18-2,0.44-2.94,0.83c-1.87,0.79-3.5,2.11-4.69,3.79
					c-1.2,1.68-1.99,3.65-2.48,5.7c-0.53,2.04-0.75,4.17-0.76,6.3c-0.44-4.22,0.11-8.75,2.48-12.52c1.16-1.89,2.97-3.38,5-4.31
					c1.02-0.46,2.11-0.74,3.2-0.94c1.1-0.16,2.19-0.25,3.3-0.23c2.2,0.05,4.44,0.5,6.42,1.53c1.99,1.01,3.69,2.53,4.96,4.31
					C304.56,157.46,305.76,161.78,306,166.03z"/>
			</g>
			<path class="st7" d="M286.23,222.91c-17.6,17.11-47.4,16.16-69.98,0.91"/>
		</g>
		<g>
			<g>
				<path class="st0" d="M249.87,51.07c0,0-53.39-9.53-61.97,23.84c-8.58,33.37,3.81,78.18-35.28,71.51c0,0-28.35,5.72-10.23,50.53
					c0,0-53.65-51.49-22.19-88.67c25.67-30.33,15.26-96.3,78.18-106.79C261.31-8.99,249.87,38.68,249.87,51.07z"/>
			</g>
			<g>
				<path class="st1" d="M249.87,51.07c0,0-53.39-9.53-61.97,23.84c-8.58,33.37,3.81,78.18-35.28,71.51c0,0-28.35,5.72-10.23,50.53
					c0,0-53.65-51.49-22.19-88.67c25.67-30.33,15.26-96.3,78.18-106.79C261.31-8.99,249.87,38.68,249.87,51.07z"/>
			</g>
			<g>
				<path class="st1" d="M245,51.07c0,0,53.39-9.53,61.97,23.84c8.58,33.37-3.81,78.18,35.28,71.51c0,0,28.35,5.72,10.23,50.53
					c0,0,53.65-51.49,22.19-88.67C349,77.95,359.42,11.98,296.49,1.5C233.56-8.99,245,38.68,245,51.07z"/>
			</g>
			<g>
				<g>
					<path class="st1" d="M244.21,45.73c7.13-0.13,14.13,0.44,21.11,1.6c6.96,1.18,13.85,3.07,20.31,6.1
						c6.41,3.03,12.49,7.41,16.46,13.55c1.97,3.04,3.38,6.45,4.15,9.99c0.71,3.54,1.05,7.01,1.3,10.54c0.46,7.02,0.33,14.03,0.14,21
						c-0.16,6.97-0.42,13.93,0.16,20.82c0.3,3.43,0.83,6.86,1.88,10.11c1.04,3.24,2.71,6.3,5.2,8.6c2.47,2.32,5.7,3.72,9.05,4.41
						c3.36,0.71,6.85,0.75,10.3,0.52l0.04,0l0.02,0c2.1,0.26,4.12,0.79,6.09,1.5c1.96,0.73,3.85,1.67,5.52,2.94
						c1.66,1.27,3.1,2.86,4,4.75c0.94,1.87,1.27,3.98,1.23,6.05c-0.01-2.06-0.41-4.15-1.38-5.97c-0.94-1.84-2.39-3.36-4.05-4.55
						c-1.67-1.19-3.54-2.07-5.48-2.73c-1.94-0.65-3.97-1.1-5.98-1.31l0.06,0c-3.49,0.3-7.04,0.33-10.53-0.34
						c-3.47-0.64-6.91-2.05-9.6-4.48c-2.71-2.4-4.54-5.63-5.69-8.99c-1.17-3.37-1.77-6.88-2.14-10.37
						c-0.72-7.01-0.59-14.02-0.56-20.99c0.03-6.97,0.12-13.93-0.4-20.82c-0.27-3.43-0.65-6.91-1.35-10.2
						c-0.75-3.28-2.07-6.4-3.92-9.19c-3.7-5.62-9.41-9.69-15.58-12.53c-6.2-2.85-12.91-4.59-19.69-5.74
						c-6.78-1.12-13.74-1.67-20.55-1.54L244.21,45.73z"/>
				</g>
			</g>
		</g>
	</g>
</g>
</svg>
