<?xml version="1.0" encoding="utf-8"?>
<!-- Generator: Adobe Illustrator 24.3.0, SVG Export Plug-In . SVG Version: 6.00 Build 0)  -->
<svg version="1.1" id="Layer_1" xmlns="http://www.w3.org/2000/svg" xmlns:xlink="http://www.w3.org/1999/xlink" x="0px" y="0px"
	 viewBox="0 0 500 500" style="enable-background:new 0 0 500 500;" xml:space="preserve">
<style type="text/css">
	.st0{fill:#FFAD9D;}
	.st1{fill:#E08880;}
	.st2{fill:#5996BF;}
	.st3{clip-path:url(#SVGID_2_);}
	.st4{fill:#352836;}
	.st5{fill:#DCB9A2;}
	.st6{fill:none;stroke:#7F5E6A;stroke-width:1.4341;stroke-miterlimit:10;}
	.st7{fill:#9CC7DC;stroke:#7F5E6A;stroke-width:1.3386;stroke-miterlimit:10;}
	.st8{fill:#FFFFFF;}
	.st9{fill:#FFDEBF;}
</style>
<g>
	<g>
		<g>
			<path class="st0" d="M306.35,331.81c-24.34-13.28-17.7-77.47-17.7-77.47l-36.46,2.35v-2.34l-3.9,1.17l-3.9-1.17v2.34l-36.46-2.35
				c0,0,6.64,64.19-17.7,77.47C165.88,345.08,22.03,351.72,37.52,500h206.87h7.8h206.87C474.55,351.72,330.69,345.08,306.35,331.81z
				"/>
			<path class="st1" d="M202.81,315.25c29.12-4.34,58.22-8.82,87.31-13.44c-4.09-22.13-1.47-47.47-1.47-47.47l-36.46,2.35v-2.34
				l-3.9,1.17l-3.9-1.17v2.34l-36.46-2.35C207.93,254.34,211.77,291.63,202.81,315.25z"/>
		</g>
		<g>
			<path class="st2" d="M321.87,334.54c-17.04,17.51-43.68,28.8-73.64,28.8c-29.96,0-56.6-11.28-73.64-28.8
				C130.11,346.92,20.75,368.76,34.46,500h209.81h7.91H462C475.72,368.76,366.35,346.92,321.87,334.54z"/>
			<g>
				<defs>
					<path id="SVGID_1_" d="M321.87,334.54c-17.04,17.51-43.68,28.8-73.64,28.8c-29.96,0-56.6-11.28-73.64-28.8
						C130.11,346.92,20.75,368.76,34.46,500h209.81h7.91H462C475.72,368.76,366.35,346.92,321.87,334.54z"/>
				</defs>
				<clipPath id="SVGID_2_">
					<use xlink:href="#SVGID_1_"  style="overflow:visible;"/>
				</clipPath>
				<g class="st3">
					<g>
						<g>
							<g>
								<path class="st4" d="M377.66,345.67c3.3,4.96,6.61,9.91,9.91,14.87c0.47,0.7,0.94,1.41,1.41,2.11
									c0.11-0.14,0.22-0.29,0.34-0.43c-6.27,1.32-12.55,2.64-18.82,3.96c-0.89,0.19-1.79,0.38-2.68,0.56
									c0.16,0.09,0.32,0.19,0.48,0.28c2.97-6.28,5.95-12.56,8.92-18.84c0.42-0.89,0.84-1.77,1.26-2.66
									c0.19-0.41-0.68-0.35-0.82-0.05c-2.97,6.28-5.95,12.56-8.92,18.84c-0.42,0.89-0.84,1.77-1.26,2.66
									c-0.15,0.31,0.29,0.32,0.48,0.28c6.27-1.32,12.55-2.64,18.82-3.96c0.89-0.19,1.79-0.38,2.68-0.56
									c0.17-0.04,0.48-0.22,0.34-0.43c-3.3-4.96-6.61-9.91-9.91-14.87c-0.47-0.7-0.94-1.41-1.41-2.11
									C378.28,345.03,377.43,345.34,377.66,345.67z"/>
							</g>
						</g>
						<g>
							<g>
								<path class="st4" d="M335.66,345.68c3.3,4.96,6.61,9.91,9.91,14.87c0.47,0.7,0.94,1.41,1.41,2.11
									c0.11-0.16,0.22-0.32,0.32-0.48c-6.27,1.32-12.55,2.64-18.82,3.96c-0.89,0.19-1.79,0.38-2.68,0.56
									c0.16,0.11,0.33,0.22,0.49,0.33c2.97-6.28,5.95-12.56,8.92-18.84c0.42-0.89,0.84-1.77,1.26-2.66
									c0.21-0.44-0.67-0.42-0.83-0.09c-2.97,6.28-5.95,12.56-8.92,18.84c-0.42,0.89-0.84,1.77-1.26,2.66
									c-0.15,0.32,0.29,0.37,0.49,0.33c6.27-1.32,12.55-2.64,18.82-3.96c0.89-0.19,1.79-0.38,2.68-0.56
									c0.19-0.04,0.47-0.26,0.32-0.48c-3.3-4.96-6.61-9.91-9.91-14.87c-0.47-0.7-0.94-1.41-1.41-2.11
									C336.26,344.99,335.42,345.31,335.66,345.68z"/>
							</g>
						</g>
						<g>
							<g>
								<path class="st4" d="M293.63,345.61c3.3,4.96,6.61,9.91,9.91,14.87c0.47,0.7,0.94,1.41,1.41,2.11
									c0.17-0.1,0.34-0.2,0.51-0.31c-6.27,1.32-12.55,2.64-18.82,3.96c-0.89,0.19-1.79,0.38-2.68,0.56
									c0.12,0.04,0.24,0.08,0.36,0.12c2.97-6.28,5.95-12.56,8.92-18.84c0.42-0.89,0.84-1.77,1.26-2.66
									c0.08-0.18-0.75-0.1-0.87,0.14c-2.97,6.28-5.95,12.56-8.92,18.84c-0.42,0.89-0.84,1.77-1.26,2.66
									c-0.08,0.16,0.31,0.13,0.36,0.12c6.27-1.32,12.55-2.64,18.82-3.96c0.89-0.19,1.79-0.38,2.68-0.56
									c0.04-0.01,0.61-0.16,0.51-0.31c-3.3-4.96-6.61-9.91-9.91-14.87c-0.47-0.7-0.94-1.41-1.41-2.11
									C294.35,345.14,293.54,345.47,293.63,345.61z"/>
							</g>
						</g>
						<g>
							<g>
								<path class="st4" d="M251.67,345.67c3.3,4.96,6.61,9.91,9.91,14.87c0.47,0.7,0.94,1.41,1.41,2.11
									c0.11-0.14,0.22-0.28,0.34-0.43c-6.27,1.32-12.55,2.64-18.82,3.96c-0.89,0.19-1.79,0.38-2.68,0.56
									c0.16,0.09,0.32,0.18,0.48,0.27c2.97-6.28,5.95-12.56,8.92-18.84c0.42-0.89,0.84-1.77,1.26-2.66
									c0.19-0.41-0.68-0.34-0.82-0.05c-2.97,6.28-5.95,12.56-8.92,18.84c-0.42,0.89-0.84,1.77-1.26,2.66
									c-0.14,0.3,0.3,0.31,0.48,0.27c6.27-1.32,12.55-2.64,18.82-3.96c0.89-0.19,1.79-0.38,2.68-0.56
									c0.17-0.04,0.48-0.22,0.34-0.43c-3.3-4.96-6.61-9.91-9.91-14.87c-0.47-0.7-0.94-1.41-1.41-2.11
									C252.29,345.04,251.45,345.34,251.67,345.67z"/>
							</g>
						</g>
						<g>
							<g>
								<path class="st4" d="M209.67,345.66c3.3,4.96,6.61,9.91,9.91,14.87c0.47,0.7,0.94,1.41,1.41,2.11
									c0.12-0.12,0.23-0.25,0.35-0.37c-6.27,1.32-12.55,2.64-18.82,3.96c-0.89,0.19-1.79,0.38-2.68,0.56
									c0.16,0.05,0.33,0.1,0.49,0.15c2.97-6.28,5.95-12.56,8.92-18.84c0.42-0.89,0.84-1.77,1.26-2.66
									c0.11-0.24-0.74-0.15-0.87,0.12c-2.97,6.28-5.95,12.56-8.92,18.84c-0.42,0.89-0.84,1.77-1.26,2.66
									c-0.11,0.23,0.44,0.16,0.49,0.15c6.27-1.32,12.55-2.64,18.82-3.96c0.89-0.19,1.79-0.38,2.68-0.56
									c0.14-0.03,0.48-0.18,0.35-0.37c-3.3-4.96-6.61-9.91-9.91-14.87c-0.47-0.7-0.94-1.41-1.41-2.11
									C210.33,345.1,209.48,345.38,209.67,345.66z"/>
							</g>
						</g>
						<g>
							<g>
								<path class="st4" d="M167.68,345.69c3.3,4.96,6.61,9.91,9.91,14.87c0.47,0.7,0.94,1.41,1.41,2.11
									c0.11-0.17,0.21-0.34,0.32-0.51c-6.27,1.32-12.55,2.64-18.82,3.96c-0.89,0.19-1.79,0.38-2.68,0.56
									c0.17,0.12,0.34,0.25,0.5,0.37c2.97-6.28,5.95-12.56,8.92-18.84c0.42-0.89,0.84-1.77,1.26-2.66
									c0.22-0.46-0.67-0.48-0.84-0.11c-2.97,6.28-5.95,12.56-8.92,18.84c-0.42,0.89-0.84,1.77-1.26,2.66
									c-0.15,0.32,0.28,0.42,0.5,0.37c6.27-1.32,12.55-2.64,18.82-3.96c0.89-0.19,1.79-0.38,2.68-0.56
									c0.21-0.04,0.46-0.28,0.32-0.51c-3.3-4.96-6.61-9.91-9.91-14.87c-0.47-0.7-0.94-1.41-1.41-2.11
									C168.25,344.95,167.42,345.3,167.68,345.69z"/>
							</g>
						</g>
						<g>
							<g>
								<path class="st4" d="M125.68,345.66c3.3,4.96,6.61,9.91,9.91,14.87c0.47,0.7,0.94,1.41,1.41,2.11
									c0.12-0.13,0.23-0.25,0.35-0.38c-6.27,1.32-12.55,2.64-18.82,3.96c-0.89,0.19-1.79,0.38-2.68,0.56
									c0.16,0.05,0.33,0.1,0.49,0.15c2.97-6.28,5.95-12.56,8.92-18.84c0.42-0.89,0.84-1.77,1.26-2.66
									c0.12-0.24-0.74-0.16-0.87,0.12c-2.97,6.28-5.95,12.56-8.92,18.84c-0.42,0.89-0.84,1.77-1.26,2.66
									c-0.11,0.23,0.44,0.16,0.49,0.15c6.27-1.32,12.55-2.64,18.82-3.96c0.89-0.19,1.79-0.38,2.68-0.56
									c0.14-0.03,0.48-0.18,0.35-0.38c-3.3-4.96-6.61-9.91-9.91-14.87c-0.47-0.7-0.94-1.41-1.41-2.11
									C126.34,345.09,125.49,345.37,125.68,345.66z"/>
							</g>
						</g>
						<g>
							<g>
								<path class="st4" d="M83.65,345.61c3.3,4.96,6.61,9.91,9.91,14.87c0.47,0.7,0.94,1.41,1.41,2.11
									c0.17-0.09,0.35-0.18,0.52-0.27c-6.27,1.32-12.55,2.64-18.82,3.96c-0.89,0.19-1.79,0.38-2.68,0.56
									c0.12,0.02,0.23,0.05,0.35,0.07c2.97-6.28,5.95-12.56,8.92-18.84c0.42-0.89,0.84-1.77,1.26-2.66
									c0.05-0.11-0.76-0.06-0.86,0.16c-2.97,6.28-5.95,12.56-8.92,18.84c-0.42,0.89-0.84,1.77-1.26,2.66
									c-0.06,0.14,0.32,0.08,0.35,0.07c6.27-1.32,12.55-2.64,18.82-3.96c0.89-0.19,1.79-0.38,2.68-0.56c0.02,0,0.6-0.15,0.52-0.27
									c-3.3-4.96-6.61-9.91-9.91-14.87c-0.47-0.7-0.94-1.41-1.41-2.11C84.39,345.17,83.59,345.52,83.65,345.61z"/>
							</g>
						</g>
						<g>
							<g>
								<path class="st4" d="M41.69,345.65c3.3,4.96,6.61,9.91,9.91,14.87c0.47,0.7,0.94,1.41,1.41,2.11
									c0.12-0.12,0.24-0.23,0.36-0.35c-6.27,1.32-12.55,2.64-18.82,3.96c-0.89,0.19-1.79,0.38-2.68,0.56
									c0.16,0.04,0.32,0.08,0.48,0.12c2.97-6.28,5.95-12.56,8.92-18.84c0.42-0.89,0.84-1.77,1.26-2.66
									c0.1-0.21-0.75-0.13-0.87,0.13c-2.97,6.28-5.95,12.56-8.92,18.84c-0.42,0.89-0.84,1.77-1.26,2.66
									c-0.1,0.21,0.44,0.13,0.48,0.12c6.27-1.32,12.55-2.64,18.82-3.96c0.89-0.19,1.79-0.38,2.68-0.56
									c0.12-0.03,0.48-0.17,0.36-0.35c-3.3-4.96-6.61-9.91-9.91-14.87c-0.47-0.7-0.94-1.41-1.41-2.11
									C42.36,345.12,41.51,345.4,41.69,345.65z"/>
							</g>
						</g>
						<g>
							<g>
								<path class="st4" d="M419.62,345.61c3.3,4.96,6.61,9.91,9.91,14.87c0.47,0.7,0.94,1.41,1.41,2.11
									c0.17-0.09,0.35-0.18,0.52-0.26c-6.27,1.32-12.55,2.64-18.82,3.96c-0.89,0.19-1.79,0.38-2.68,0.56
									c0.12,0.02,0.23,0.04,0.35,0.07c2.97-6.28,5.95-12.56,8.92-18.84c0.42-0.89,0.84-1.77,1.26-2.66
									c0.05-0.11-0.76-0.05-0.86,0.16c-2.97,6.28-5.95,12.56-8.92,18.84c-0.42,0.89-0.84,1.77-1.26,2.66
									c-0.06,0.13,0.32,0.07,0.34,0.07c6.27-1.32,12.55-2.64,18.82-3.96c0.89-0.19,1.79-0.38,2.68-0.56c0.02,0,0.6-0.15,0.52-0.26
									c-3.3-4.96-6.61-9.91-9.91-14.87c-0.47-0.7-0.94-1.41-1.41-2.11C420.36,345.17,419.56,345.52,419.62,345.61z"/>
							</g>
						</g>
					</g>
					<g>
						<g>
							<g>
								<path class="st4" d="M402.19,381.83c3.3,4.96,6.61,9.91,9.91,14.87c0.47,0.7,0.94,1.41,1.41,2.11
									c0.17-0.09,0.35-0.18,0.52-0.27c-6.27,1.32-12.55,2.64-18.82,3.96c-0.89,0.19-1.79,0.38-2.68,0.56
									c0.12,0.03,0.23,0.05,0.35,0.08c2.97-6.28,5.95-12.56,8.92-18.84c0.42-0.89,0.84-1.77,1.26-2.66
									c0.06-0.12-0.76-0.07-0.86,0.16c-2.97,6.28-5.95,12.56-8.92,18.84c-0.42,0.89-0.84,1.77-1.26,2.66
									c-0.07,0.14,0.32,0.08,0.35,0.08c6.27-1.32,12.55-2.64,18.82-3.96c0.89-0.19,1.79-0.38,2.68-0.56
									c0.03-0.01,0.6-0.15,0.52-0.27c-3.3-4.96-6.61-9.91-9.91-14.87c-0.47-0.7-0.94-1.41-1.41-2.11
									C402.92,381.39,402.12,381.73,402.19,381.83z"/>
							</g>
						</g>
						<g>
							<g>
								<path class="st4" d="M360.23,381.9c3.3,4.96,6.61,9.91,9.91,14.87c0.47,0.7,0.94,1.41,1.41,2.11
									c0.11-0.15,0.22-0.31,0.33-0.46c-6.27,1.32-12.55,2.64-18.82,3.96c-0.89,0.19-1.79,0.38-2.68,0.56
									c0.16,0.1,0.32,0.21,0.49,0.31c2.97-6.28,5.95-12.56,8.92-18.84c0.42-0.89,0.84-1.77,1.26-2.66
									c0.2-0.43-0.68-0.39-0.83-0.07c-2.97,6.28-5.95,12.56-8.92,18.84c-0.42,0.89-0.84,1.77-1.26,2.66
									c-0.15,0.31,0.29,0.35,0.49,0.31c6.27-1.32,12.55-2.64,18.82-3.96c0.89-0.19,1.79-0.38,2.68-0.56
									c0.18-0.04,0.47-0.24,0.33-0.46c-3.3-4.96-6.61-9.91-9.91-14.87c-0.47-0.7-0.94-1.41-1.41-2.11
									C360.83,381.23,359.99,381.54,360.23,381.9z"/>
							</g>
						</g>
						<g>
							<g>
								<path class="st4" d="M318.23,381.9c3.3,4.96,6.61,9.91,9.91,14.87c0.47,0.7,0.94,1.41,1.41,2.11
									c0.11-0.15,0.22-0.31,0.33-0.46c-6.27,1.32-12.55,2.64-18.82,3.96c-0.89,0.19-1.79,0.38-2.68,0.56
									c0.16,0.1,0.32,0.21,0.49,0.31c2.97-6.28,5.95-12.56,8.92-18.84c0.42-0.89,0.84-1.77,1.26-2.66
									c0.2-0.43-0.68-0.39-0.83-0.07c-2.97,6.28-5.95,12.56-8.92,18.84c-0.42,0.89-0.84,1.77-1.26,2.66
									c-0.15,0.31,0.29,0.35,0.49,0.31c6.27-1.32,12.55-2.64,18.82-3.96c0.89-0.19,1.79-0.38,2.68-0.56
									c0.18-0.04,0.47-0.24,0.33-0.46c-3.3-4.96-6.61-9.91-9.91-14.87c-0.47-0.7-0.94-1.41-1.41-2.11
									C318.84,381.23,318,381.54,318.23,381.9z"/>
							</g>
						</g>
						<g>
							<g>
								<path class="st4" d="M276.23,381.88c3.3,4.96,6.61,9.91,9.91,14.87c0.47,0.7,0.94,1.41,1.41,2.11
									c0.12-0.12,0.24-0.25,0.35-0.37c-6.27,1.32-12.55,2.64-18.82,3.96c-0.89,0.19-1.79,0.38-2.68,0.56
									c0.16,0.05,0.33,0.09,0.49,0.14c2.97-6.28,5.95-12.56,8.92-18.84c0.42-0.89,0.84-1.77,1.26-2.66
									c0.11-0.24-0.74-0.15-0.87,0.12c-2.97,6.28-5.95,12.56-8.92,18.84c-0.42,0.89-0.84,1.77-1.26,2.66
									c-0.11,0.23,0.44,0.15,0.49,0.14c6.27-1.32,12.55-2.64,18.82-3.96c0.89-0.19,1.79-0.38,2.68-0.56
									c0.13-0.03,0.48-0.18,0.35-0.37c-3.3-4.96-6.61-9.91-9.91-14.87c-0.47-0.7-0.94-1.41-1.41-2.11
									C276.9,381.32,276.05,381.6,276.23,381.88z"/>
							</g>
						</g>
						<g>
							<g>
								<path class="st4" d="M234.24,381.91c3.3,4.96,6.61,9.91,9.91,14.87c0.47,0.7,0.94,1.41,1.41,2.11
									c0.11-0.16,0.21-0.33,0.32-0.49c-6.27,1.32-12.55,2.64-18.82,3.96c-0.89,0.19-1.79,0.38-2.68,0.56
									c0.17,0.12,0.33,0.23,0.5,0.35c2.97-6.28,5.95-12.56,8.92-18.84c0.42-0.89,0.84-1.77,1.26-2.66
									c0.21-0.45-0.67-0.45-0.84-0.1c-2.97,6.28-5.95,12.56-8.92,18.84c-0.42,0.89-0.84,1.77-1.26,2.66
									c-0.15,0.32,0.29,0.4,0.5,0.35c6.27-1.32,12.55-2.64,18.82-3.96c0.89-0.19,1.79-0.38,2.68-0.56
									c0.2-0.04,0.47-0.27,0.32-0.49c-3.3-4.96-6.61-9.91-9.91-14.87c-0.47-0.7-0.94-1.41-1.41-2.11
									C234.82,381.19,233.99,381.53,234.24,381.91z"/>
							</g>
						</g>
						<g>
							<g>
								<path class="st4" d="M192.25,381.9c3.3,4.96,6.61,9.91,9.91,14.87c0.47,0.7,0.94,1.41,1.41,2.11
									c0.11-0.16,0.21-0.32,0.32-0.48c-6.27,1.32-12.55,2.64-18.82,3.96c-0.89,0.19-1.79,0.38-2.68,0.56
									c0.17,0.11,0.33,0.23,0.5,0.34c2.97-6.28,5.95-12.56,8.92-18.84c0.42-0.89,0.84-1.77,1.26-2.66
									c0.21-0.44-0.67-0.44-0.83-0.09c-2.97,6.28-5.95,12.56-8.92,18.84c-0.42,0.89-0.84,1.77-1.26,2.66
									c-0.15,0.32,0.29,0.38,0.5,0.34c6.27-1.32,12.55-2.64,18.82-3.96c0.89-0.19,1.79-0.38,2.68-0.56
									c0.2-0.04,0.47-0.26,0.32-0.48c-3.3-4.96-6.61-9.91-9.91-14.87c-0.47-0.7-0.94-1.41-1.41-2.11
									C192.83,381.2,192,381.53,192.25,381.9z"/>
							</g>
						</g>
						<g>
							<g>
								<path class="st4" d="M150.25,381.91c3.3,4.96,6.61,9.91,9.91,14.87c0.47,0.7,0.94,1.41,1.41,2.11
									c0.1-0.17,0.21-0.34,0.31-0.52c-6.27,1.32-12.55,2.64-18.82,3.96c-0.89,0.19-1.79,0.38-2.68,0.56
									c0.17,0.13,0.34,0.25,0.51,0.38c2.97-6.28,5.95-12.56,8.92-18.84c0.42-0.89,0.84-1.77,1.26-2.66
									c0.22-0.46-0.66-0.49-0.84-0.12c-2.97,6.28-5.95,12.56-8.92,18.84c-0.42,0.89-0.84,1.77-1.26,2.66
									c-0.15,0.33,0.28,0.43,0.51,0.38c6.27-1.32,12.55-2.64,18.82-3.96c0.89-0.19,1.79-0.38,2.68-0.56
									c0.21-0.04,0.46-0.29,0.31-0.52c-3.3-4.96-6.61-9.91-9.91-14.87c-0.47-0.7-0.94-1.41-1.41-2.11
									C150.82,381.16,149.99,381.51,150.25,381.91z"/>
							</g>
						</g>
						<g>
							<g>
								<path class="st4" d="M108.25,381.88c3.3,4.96,6.61,9.91,9.91,14.87c0.47,0.7,0.94,1.41,1.41,2.11
									c0.12-0.12,0.24-0.24,0.36-0.36c-6.27,1.32-12.55,2.64-18.82,3.96c-0.89,0.19-1.79,0.38-2.68,0.56
									c0.16,0.04,0.32,0.09,0.49,0.13c2.97-6.28,5.95-12.56,8.92-18.84c0.42-0.89,0.84-1.77,1.26-2.66
									c0.11-0.22-0.75-0.14-0.87,0.12c-2.97,6.28-5.95,12.56-8.92,18.84c-0.42,0.89-0.84,1.77-1.26,2.66
									c-0.1,0.22,0.44,0.14,0.49,0.13c6.27-1.32,12.55-2.64,18.82-3.96c0.89-0.19,1.79-0.38,2.68-0.56
									c0.13-0.03,0.48-0.17,0.36-0.36c-3.3-4.96-6.61-9.91-9.91-14.87c-0.47-0.7-0.94-1.41-1.41-2.11
									C108.92,381.33,108.07,381.61,108.25,381.88z"/>
							</g>
						</g>
						<g>
							<g>
								<path class="st4" d="M66.26,381.9c3.3,4.96,6.61,9.91,9.91,14.87c0.47,0.7,0.94,1.41,1.41,2.11
									c0.11-0.15,0.22-0.3,0.33-0.45c-6.27,1.32-12.55,2.64-18.82,3.96c-0.89,0.19-1.79,0.38-2.68,0.56
									c0.16,0.1,0.32,0.2,0.48,0.3c2.97-6.28,5.95-12.56,8.92-18.84c0.42-0.89,0.84-1.77,1.26-2.66c0.2-0.42-0.68-0.38-0.83-0.07
									c-2.97,6.28-5.95,12.56-8.92,18.84c-0.42,0.89-0.84,1.77-1.26,2.66c-0.15,0.31,0.29,0.34,0.48,0.3
									c6.27-1.32,12.55-2.64,18.82-3.96c0.89-0.19,1.79-0.38,2.68-0.56c0.18-0.04,0.47-0.24,0.33-0.45
									c-3.3-4.96-6.61-9.91-9.91-14.87c-0.47-0.7-0.94-1.41-1.41-2.11C66.87,381.24,66.03,381.55,66.26,381.9z"/>
							</g>
						</g>
						<g>
							<g>
								<path class="st4" d="M444.18,381.83c3.3,4.96,6.61,9.91,9.91,14.87c0.47,0.7,0.94,1.41,1.41,2.11
									c0.17-0.09,0.35-0.18,0.52-0.26c-6.27,1.32-12.55,2.64-18.82,3.96c-0.89,0.19-1.79,0.38-2.68,0.56
									c0.11,0.02,0.23,0.04,0.34,0.07c2.97-6.28,5.95-12.56,8.92-18.84c0.42-0.89,0.84-1.77,1.26-2.66
									c0.05-0.1-0.76-0.05-0.86,0.16c-2.97,6.28-5.95,12.56-8.92,18.84c-0.42,0.89-0.84,1.77-1.26,2.66
									c-0.06,0.13,0.32,0.07,0.34,0.07c6.27-1.32,12.55-2.64,18.82-3.96c0.89-0.19,1.79-0.38,2.68-0.56c0.02,0,0.6-0.15,0.52-0.26
									c-3.3-4.96-6.61-9.91-9.91-14.87c-0.47-0.7-0.94-1.41-1.41-2.11C444.92,381.39,444.13,381.75,444.18,381.83z"/>
							</g>
						</g>
					</g>
					<g>
						<g>
							<g>
								<path class="st4" d="M377.65,418.11c3.3,4.96,6.61,9.91,9.91,14.87c0.47,0.7,0.94,1.41,1.41,2.11
									c0.12-0.13,0.23-0.26,0.35-0.39c-6.27,1.32-12.55,2.64-18.82,3.96c-0.89,0.19-1.79,0.38-2.68,0.56
									c0.16,0.08,0.31,0.15,0.47,0.23c2.97-6.28,5.95-12.56,8.92-18.84c0.42-0.89,0.84-1.77,1.26-2.66
									c0.18-0.38-0.69-0.28-0.81-0.02c-2.97,6.28-5.95,12.56-8.92,18.84c-0.42,0.89-0.84,1.77-1.26,2.66
									c-0.14,0.29,0.3,0.27,0.47,0.23c6.27-1.32,12.55-2.64,18.82-3.96c0.89-0.19,1.79-0.38,2.68-0.56
									c0.15-0.03,0.48-0.2,0.35-0.39c-3.3-4.96-6.61-9.91-9.91-14.87c-0.47-0.7-0.94-1.41-1.41-2.11
									C378.3,417.52,377.45,417.8,377.65,418.11z"/>
							</g>
						</g>
						<g>
							<g>
								<path class="st4" d="M335.63,418.05c3.3,4.96,6.61,9.91,9.91,14.87c0.47,0.7,0.94,1.41,1.41,2.11
									c0.17-0.09,0.35-0.18,0.52-0.26c-6.27,1.32-12.55,2.64-18.82,3.96c-0.89,0.19-1.79,0.38-2.68,0.56
									c0.11,0.02,0.23,0.04,0.35,0.07c2.97-6.28,5.95-12.56,8.92-18.84c0.42-0.89,0.84-1.77,1.26-2.66
									c0.05-0.11-0.76-0.06-0.86,0.16c-2.97,6.28-5.95,12.56-8.92,18.84c-0.42,0.89-0.84,1.77-1.26,2.66
									c-0.06,0.13,0.32,0.07,0.35,0.07c6.27-1.32,12.55-2.64,18.82-3.96c0.89-0.19,1.79-0.38,2.68-0.56c0.02,0,0.6-0.15,0.52-0.26
									c-3.3-4.96-6.61-9.91-9.91-14.87c-0.47-0.7-0.94-1.41-1.41-2.11C336.37,417.62,335.57,417.97,335.63,418.05z"/>
							</g>
						</g>
						<g>
							<g>
								<path class="st4" d="M293.67,418.13c3.3,4.96,6.61,9.91,9.91,14.87c0.47,0.7,0.94,1.41,1.41,2.11
									c0.11-0.17,0.21-0.33,0.32-0.5c-6.27,1.32-12.55,2.64-18.82,3.96c-0.89,0.19-1.79,0.38-2.68,0.56
									c0.17,0.12,0.33,0.24,0.5,0.36c2.97-6.28,5.95-12.56,8.92-18.84c0.42-0.89,0.84-1.77,1.26-2.66
									c0.21-0.45-0.67-0.47-0.84-0.11c-2.97,6.28-5.95,12.56-8.92,18.84c-0.42,0.89-0.84,1.77-1.26,2.66
									c-0.15,0.32,0.29,0.41,0.5,0.36c6.27-1.32,12.55-2.64,18.82-3.96c0.89-0.19,1.79-0.38,2.68-0.56
									c0.21-0.04,0.47-0.28,0.32-0.5c-3.3-4.96-6.61-9.91-9.91-14.87c-0.47-0.7-0.94-1.41-1.41-2.11
									C294.24,417.4,293.41,417.74,293.67,418.13z"/>
							</g>
						</g>
						<g>
							<g>
								<path class="st4" d="M251.67,418.13c3.3,4.96,6.61,9.91,9.91,14.87c0.47,0.7,0.94,1.41,1.41,2.11
									c0.1-0.17,0.21-0.35,0.31-0.52c-6.27,1.32-12.55,2.64-18.82,3.96c-0.89,0.19-1.79,0.38-2.68,0.56
									c0.17,0.13,0.34,0.26,0.51,0.38c2.97-6.28,5.95-12.56,8.92-18.84c0.42-0.89,0.84-1.77,1.26-2.66
									c0.22-0.46-0.66-0.5-0.84-0.12c-2.97,6.28-5.95,12.56-8.92,18.84c-0.42,0.89-0.84,1.77-1.26,2.66
									c-0.15,0.33,0.28,0.43,0.51,0.38c6.27-1.32,12.55-2.64,18.82-3.96c0.89-0.19,1.79-0.38,2.68-0.56
									c0.22-0.05,0.46-0.3,0.31-0.52c-3.3-4.96-6.61-9.91-9.91-14.87c-0.47-0.7-0.94-1.41-1.41-2.11
									C252.23,417.38,251.41,417.73,251.67,418.13z"/>
							</g>
						</g>
						<g>
							<g>
								<path class="st4" d="M209.67,418.1c3.3,4.96,6.61,9.91,9.91,14.87c0.47,0.7,0.94,1.41,1.41,2.11
									c0.12-0.12,0.24-0.23,0.36-0.35c-6.27,1.32-12.55,2.64-18.82,3.96c-0.89,0.19-1.79,0.38-2.68,0.56
									c0.16,0.04,0.32,0.08,0.49,0.12c2.97-6.28,5.95-12.56,8.92-18.84c0.42-0.89,0.84-1.77,1.26-2.66
									c0.1-0.22-0.75-0.13-0.87,0.13c-2.97,6.28-5.95,12.56-8.92,18.84c-0.42,0.89-0.84,1.77-1.26,2.66
									c-0.1,0.22,0.44,0.13,0.49,0.12c6.27-1.32,12.55-2.64,18.82-3.96c0.89-0.19,1.79-0.38,2.68-0.56
									c0.12-0.03,0.48-0.17,0.36-0.35c-3.3-4.96-6.61-9.91-9.91-14.87c-0.47-0.7-0.94-1.41-1.41-2.11
									C210.34,417.56,209.49,417.84,209.67,418.1z"/>
							</g>
						</g>
						<g>
							<g>
								<path class="st4" d="M167.68,418.13c3.3,4.96,6.61,9.91,9.91,14.87c0.47,0.7,0.94,1.41,1.41,2.11
									c0.11-0.17,0.21-0.33,0.32-0.5c-6.27,1.32-12.55,2.64-18.82,3.96c-0.89,0.19-1.79,0.38-2.68,0.56
									c0.17,0.12,0.33,0.24,0.5,0.36c2.97-6.28,5.95-12.56,8.92-18.84c0.42-0.89,0.84-1.77,1.26-2.66
									c0.21-0.45-0.67-0.47-0.84-0.11c-2.97,6.28-5.95,12.56-8.92,18.84c-0.42,0.89-0.84,1.77-1.26,2.66
									c-0.15,0.32,0.29,0.4,0.5,0.36c6.27-1.32,12.55-2.64,18.82-3.96c0.89-0.19,1.79-0.38,2.68-0.56
									c0.21-0.04,0.47-0.28,0.32-0.5c-3.3-4.96-6.61-9.91-9.91-14.87c-0.47-0.7-0.94-1.41-1.41-2.11
									C168.26,417.4,167.43,417.74,167.68,418.13z"/>
							</g>
						</g>
						<g>
							<g>
								<path class="st4" d="M125.68,418.11c3.3,4.96,6.61,9.91,9.91,14.87c0.47,0.7,0.94,1.41,1.41,2.11
									c0.11-0.14,0.23-0.28,0.34-0.42c-6.27,1.32-12.55,2.64-18.82,3.96c-0.89,0.19-1.79,0.38-2.68,0.56
									c0.16,0.09,0.32,0.18,0.48,0.27c2.97-6.28,5.95-12.56,8.92-18.84c0.42-0.89,0.84-1.77,1.26-2.66
									c0.19-0.4-0.68-0.33-0.82-0.04c-2.97,6.28-5.95,12.56-8.92,18.84c-0.42,0.89-0.84,1.77-1.26,2.66
									c-0.14,0.3,0.3,0.3,0.48,0.27c6.27-1.32,12.55-2.64,18.82-3.96c0.89-0.19,1.79-0.38,2.68-0.56
									c0.16-0.03,0.48-0.22,0.34-0.42c-3.3-4.96-6.61-9.91-9.91-14.87c-0.47-0.7-0.94-1.41-1.41-2.11
									C126.31,417.49,125.46,417.79,125.68,418.11z"/>
							</g>
						</g>
						<g>
							<g>
								<path class="st4" d="M83.68,418.1c3.3,4.96,6.61,9.91,9.91,14.87c0.47,0.7,0.94,1.41,1.41,2.11
									c0.12-0.12,0.24-0.23,0.36-0.35c-6.27,1.32-12.55,2.64-18.82,3.96c-0.89,0.19-1.79,0.38-2.68,0.56
									c0.16,0.04,0.32,0.08,0.48,0.12c2.97-6.28,5.95-12.56,8.92-18.84c0.42-0.89,0.84-1.77,1.26-2.66
									c0.1-0.21-0.75-0.13-0.87,0.13c-2.97,6.28-5.95,12.56-8.92,18.84c-0.42,0.89-0.84,1.77-1.26,2.66
									c-0.1,0.21,0.44,0.13,0.48,0.12c6.27-1.32,12.55-2.64,18.82-3.96c0.89-0.19,1.79-0.38,2.68-0.56
									c0.12-0.03,0.48-0.17,0.36-0.35c-3.3-4.96-6.61-9.91-9.91-14.87c-0.47-0.7-0.94-1.41-1.41-2.11
									C84.36,417.56,83.51,417.84,83.68,418.1z"/>
							</g>
						</g>
						<g>
							<g>
								<path class="st4" d="M41.69,418.1c3.3,4.96,6.61,9.91,9.91,14.87c0.47,0.7,0.94,1.41,1.41,2.11
									c0.12-0.12,0.24-0.24,0.35-0.36c-6.27,1.32-12.55,2.64-18.82,3.96c-0.89,0.19-1.79,0.38-2.68,0.56
									c0.16,0.05,0.33,0.09,0.49,0.14c2.97-6.28,5.95-12.56,8.92-18.84c0.42-0.89,0.84-1.77,1.26-2.66
									c0.11-0.23-0.75-0.14-0.87,0.12c-2.97,6.28-5.95,12.56-8.92,18.84c-0.42,0.89-0.84,1.77-1.26,2.66
									c-0.11,0.22,0.44,0.15,0.49,0.14c6.27-1.32,12.55-2.64,18.82-3.96c0.89-0.19,1.79-0.38,2.68-0.56
									c0.13-0.03,0.48-0.18,0.35-0.36c-3.3-4.96-6.61-9.91-9.91-14.87c-0.47-0.7-0.94-1.41-1.41-2.11
									C42.35,417.55,41.5,417.83,41.69,418.1z"/>
							</g>
						</g>
						<g>
							<g>
								<path class="st4" d="M419.65,418.1c3.3,4.96,6.61,9.91,9.91,14.87c0.47,0.7,0.94,1.41,1.41,2.11
									c0.12-0.12,0.23-0.25,0.35-0.37c-6.27,1.32-12.55,2.64-18.82,3.96c-0.89,0.19-1.79,0.38-2.68,0.56
									c0.16,0.05,0.33,0.1,0.49,0.15c2.97-6.28,5.95-12.56,8.92-18.84c0.42-0.89,0.84-1.77,1.26-2.66
									c0.11-0.24-0.74-0.15-0.87,0.12c-2.97,6.28-5.95,12.56-8.92,18.84c-0.42,0.89-0.84,1.77-1.26,2.66
									c-0.11,0.23,0.44,0.16,0.49,0.15c6.27-1.32,12.55-2.64,18.82-3.96c0.89-0.19,1.79-0.38,2.68-0.56
									c0.14-0.03,0.48-0.18,0.35-0.37c-3.3-4.96-6.61-9.91-9.91-14.87c-0.47-0.7-0.94-1.41-1.41-2.11
									C420.31,417.54,419.46,417.82,419.65,418.1z"/>
							</g>
						</g>
					</g>
					<g>
						<g>
							<g>
								<path class="st4" d="M377.66,490.57c3.3,4.96,6.61,9.91,9.91,14.87c0.47,0.7,0.94,1.41,1.41,2.11
									c0.11-0.16,0.21-0.33,0.32-0.49c-6.27,1.32-12.55,2.64-18.82,3.96c-0.89,0.19-1.79,0.38-2.68,0.56
									c0.17,0.12,0.33,0.23,0.5,0.35c2.97-6.28,5.95-12.56,8.92-18.84c0.42-0.89,0.84-1.77,1.26-2.66
									c0.21-0.45-0.67-0.45-0.83-0.1c-2.97,6.28-5.95,12.56-8.92,18.84c-0.42,0.89-0.84,1.77-1.26,2.66
									c-0.15,0.32,0.29,0.39,0.5,0.35c6.27-1.32,12.55-2.64,18.82-3.96c0.89-0.19,1.79-0.38,2.68-0.56
									c0.2-0.04,0.47-0.27,0.32-0.49c-3.3-4.96-6.61-9.91-9.91-14.87c-0.47-0.7-0.94-1.41-1.41-2.11
									C378.24,489.86,377.41,490.19,377.66,490.57z"/>
							</g>
						</g>
						<g>
							<g>
								<path class="st4" d="M335.66,490.56c3.3,4.96,6.61,9.91,9.91,14.87c0.47,0.7,0.94,1.41,1.41,2.11
									c0.11-0.16,0.22-0.31,0.33-0.47c-6.27,1.32-12.55,2.64-18.82,3.96c-0.89,0.19-1.79,0.38-2.68,0.56
									c0.16,0.11,0.33,0.21,0.49,0.32c2.97-6.28,5.95-12.56,8.92-18.84c0.42-0.89,0.84-1.77,1.26-2.66
									c0.21-0.43-0.67-0.41-0.83-0.08c-2.97,6.28-5.95,12.56-8.92,18.84c-0.42,0.89-0.84,1.77-1.26,2.66
									c-0.15,0.32,0.29,0.36,0.49,0.32c6.27-1.32,12.55-2.64,18.82-3.96c0.89-0.19,1.79-0.38,2.68-0.56
									c0.19-0.04,0.47-0.25,0.33-0.47c-3.3-4.96-6.61-9.91-9.91-14.87c-0.47-0.7-0.94-1.41-1.41-2.11
									C336.26,489.88,335.42,490.2,335.66,490.56z"/>
							</g>
						</g>
						<g>
							<g>
								<path class="st4" d="M293.67,490.56c3.3,4.96,6.61,9.91,9.91,14.87c0.47,0.7,0.94,1.41,1.41,2.11
									c0.11-0.15,0.22-0.3,0.33-0.46c-6.27,1.32-12.55,2.64-18.82,3.96c-0.89,0.19-1.79,0.38-2.68,0.56
									c0.16,0.1,0.32,0.21,0.49,0.31c2.97-6.28,5.95-12.56,8.92-18.84c0.42-0.89,0.84-1.77,1.26-2.66
									c0.2-0.43-0.68-0.39-0.83-0.07c-2.97,6.28-5.95,12.56-8.92,18.84c-0.42,0.89-0.84,1.77-1.26,2.66
									c-0.15,0.31,0.29,0.35,0.49,0.31c6.27-1.32,12.55-2.64,18.82-3.96c0.89-0.19,1.79-0.38,2.68-0.56
									c0.18-0.04,0.47-0.24,0.33-0.46c-3.3-4.96-6.61-9.91-9.91-14.87c-0.47-0.7-0.94-1.41-1.41-2.11
									C294.27,489.89,293.43,490.21,293.67,490.56z"/>
							</g>
						</g>
						<g>
							<g>
								<path class="st4" d="M251.64,490.49c3.3,4.96,6.61,9.91,9.91,14.87c0.47,0.7,0.94,1.41,1.41,2.11
									c0.17-0.1,0.34-0.2,0.51-0.29c-6.27,1.32-12.55,2.64-18.82,3.96c-0.89,0.19-1.79,0.38-2.68,0.56
									c0.12,0.03,0.24,0.07,0.36,0.1c2.97-6.28,5.95-12.56,8.92-18.84c0.42-0.89,0.84-1.77,1.26-2.66
									c0.08-0.16-0.75-0.09-0.86,0.15c-2.97,6.28-5.95,12.56-8.92,18.84c-0.42,0.89-0.84,1.77-1.26,2.66
									c-0.07,0.15,0.32,0.11,0.36,0.1c6.27-1.32,12.55-2.64,18.82-3.96c0.89-0.19,1.79-0.38,2.68-0.56
									c0.03-0.01,0.61-0.15,0.51-0.29c-3.3-4.96-6.61-9.91-9.91-14.87c-0.47-0.7-0.94-1.41-1.41-2.11
									C252.36,490.03,251.55,490.37,251.64,490.49z"/>
							</g>
						</g>
						<g>
							<g>
								<path class="st4" d="M209.64,490.49c3.3,4.96,6.61,9.91,9.91,14.87c0.47,0.7,0.94,1.41,1.41,2.11
									c0.17-0.09,0.35-0.18,0.52-0.27c-6.27,1.32-12.55,2.64-18.82,3.96c-0.89,0.19-1.79,0.38-2.68,0.56
									c0.12,0.02,0.23,0.05,0.35,0.07c2.97-6.28,5.95-12.56,8.92-18.84c0.42-0.89,0.84-1.77,1.26-2.66
									c0.05-0.11-0.76-0.06-0.86,0.16c-2.97,6.28-5.95,12.56-8.92,18.84c-0.42,0.89-0.84,1.77-1.26,2.66
									c-0.07,0.14,0.32,0.08,0.35,0.07c6.27-1.32,12.55-2.64,18.82-3.96c0.89-0.19,1.79-0.38,2.68-0.56
									c0.02-0.01,0.6-0.15,0.52-0.27c-3.3-4.96-6.61-9.91-9.91-14.87c-0.47-0.7-0.94-1.41-1.41-2.11
									C210.38,490.05,209.58,490.4,209.64,490.49z"/>
							</g>
						</g>
						<g>
							<g>
								<path class="st4" d="M167.67,490.54c3.3,4.96,6.61,9.91,9.91,14.87c0.47,0.7,0.94,1.41,1.41,2.11
									c0.12-0.12,0.23-0.25,0.35-0.37c-6.27,1.32-12.55,2.64-18.82,3.96c-0.89,0.19-1.79,0.38-2.68,0.56
									c0.16,0.05,0.33,0.1,0.49,0.15c2.97-6.28,5.95-12.56,8.92-18.84c0.42-0.89,0.84-1.77,1.26-2.66
									c0.11-0.24-0.74-0.16-0.87,0.12c-2.97,6.28-5.95,12.56-8.92,18.84c-0.42,0.89-0.84,1.77-1.26,2.66
									c-0.11,0.23,0.44,0.16,0.49,0.15c6.27-1.32,12.55-2.64,18.82-3.96c0.89-0.19,1.79-0.38,2.68-0.56
									c0.14-0.03,0.48-0.18,0.35-0.37c-3.3-4.96-6.61-9.91-9.91-14.87c-0.47-0.7-0.94-1.41-1.41-2.11
									C168.33,489.98,167.49,490.26,167.67,490.54z"/>
							</g>
						</g>
						<g>
							<g>
								<path class="st4" d="M125.65,490.49c3.3,4.96,6.61,9.91,9.91,14.87c0.47,0.7,0.94,1.41,1.41,2.11
									c0.17-0.1,0.34-0.19,0.52-0.29c-6.27,1.32-12.55,2.64-18.82,3.96c-0.89,0.19-1.79,0.38-2.68,0.56
									c0.12,0.03,0.24,0.07,0.35,0.1c2.97-6.28,5.95-12.56,8.92-18.84c0.42-0.89,0.84-1.77,1.26-2.66
									c0.07-0.15-0.75-0.08-0.86,0.15c-2.97,6.28-5.95,12.56-8.92,18.84c-0.42,0.89-0.84,1.77-1.26,2.66
									c-0.07,0.15,0.32,0.11,0.35,0.1c6.27-1.32,12.55-2.64,18.82-3.96c0.89-0.19,1.79-0.38,2.68-0.56
									c0.03-0.01,0.61-0.15,0.52-0.29c-3.3-4.96-6.61-9.91-9.91-14.87c-0.47-0.7-0.94-1.41-1.41-2.11
									C126.37,490.04,125.57,490.37,125.65,490.49z"/>
							</g>
						</g>
						<g>
							<g>
								<path class="st4" d="M83.68,490.54c3.3,4.96,6.61,9.91,9.91,14.87c0.47,0.7,0.94,1.41,1.41,2.11
									c0.12-0.11,0.24-0.23,0.36-0.34c-6.27,1.32-12.55,2.64-18.82,3.96c-0.89,0.19-1.79,0.38-2.68,0.56
									c0.16,0.04,0.32,0.08,0.48,0.12c2.97-6.28,5.95-12.56,8.92-18.84c0.42-0.89,0.84-1.77,1.26-2.66
									c0.1-0.21-0.75-0.13-0.87,0.13c-2.97,6.28-5.95,12.56-8.92,18.84c-0.42,0.89-0.84,1.77-1.26,2.66
									c-0.1,0.21,0.44,0.13,0.48,0.12c6.27-1.32,12.55-2.64,18.82-3.96c0.89-0.19,1.79-0.38,2.68-0.56
									c0.12-0.03,0.48-0.17,0.36-0.34c-3.3-4.96-6.61-9.91-9.91-14.87c-0.47-0.7-0.94-1.41-1.41-2.11
									C84.36,490.01,83.51,490.28,83.68,490.54z"/>
							</g>
						</g>
						<g>
							<g>
								<path class="st4" d="M41.69,490.55c3.3,4.96,6.61,9.91,9.91,14.87c0.47,0.7,0.94,1.41,1.41,2.11
									c0.11-0.14,0.23-0.27,0.34-0.41c-6.27,1.32-12.55,2.64-18.82,3.96c-0.89,0.19-1.79,0.38-2.68,0.56
									c0.16,0.08,0.31,0.16,0.47,0.25c2.97-6.28,5.95-12.56,8.92-18.84c0.42-0.89,0.84-1.77,1.26-2.66
									c0.18-0.39-0.69-0.3-0.82-0.03c-2.97,6.28-5.95,12.56-8.92,18.84c-0.42,0.89-0.84,1.77-1.26,2.66
									c-0.14,0.3,0.3,0.28,0.47,0.25c6.27-1.32,12.55-2.64,18.82-3.96c0.89-0.19,1.79-0.38,2.68-0.56
									c0.16-0.03,0.48-0.2,0.34-0.41c-3.3-4.96-6.61-9.91-9.91-14.87c-0.47-0.7-0.94-1.41-1.41-2.11
									C42.33,489.95,41.48,490.24,41.69,490.55z"/>
							</g>
						</g>
						<g>
							<g>
								<path class="st4" d="M419.62,490.49c3.3,4.96,6.61,9.91,9.91,14.87c0.47,0.7,0.94,1.41,1.41,2.11
									c0.17-0.1,0.34-0.2,0.51-0.3c-6.27,1.32-12.55,2.64-18.82,3.96c-0.89,0.19-1.79,0.38-2.68,0.56
									c0.12,0.04,0.24,0.07,0.36,0.11c2.97-6.28,5.95-12.56,8.92-18.84c0.42-0.89,0.84-1.77,1.26-2.66
									c0.08-0.16-0.75-0.09-0.86,0.14c-2.97,6.28-5.95,12.56-8.92,18.84c-0.42,0.89-0.84,1.77-1.26,2.66
									c-0.07,0.15,0.32,0.11,0.36,0.11c6.27-1.32,12.55-2.64,18.82-3.96c0.89-0.19,1.79-0.38,2.68-0.56
									c0.03-0.01,0.61-0.15,0.51-0.3c-3.3-4.96-6.61-9.91-9.91-14.87c-0.47-0.7-0.94-1.41-1.41-2.11
									C420.34,490.03,419.53,490.36,419.62,490.49z"/>
							</g>
						</g>
					</g>
					<g>
						<g>
							<g>
								<path class="st4" d="M402.19,454.27c3.3,4.96,6.61,9.91,9.91,14.87c0.47,0.7,0.94,1.41,1.41,2.11
									c0.17-0.1,0.34-0.19,0.51-0.29c-6.27,1.32-12.55,2.64-18.82,3.96c-0.89,0.19-1.79,0.38-2.68,0.56
									c0.12,0.03,0.24,0.07,0.35,0.1c2.97-6.28,5.95-12.56,8.92-18.84c0.42-0.89,0.84-1.77,1.26-2.66
									c0.07-0.15-0.75-0.09-0.86,0.15c-2.97,6.28-5.95,12.56-8.92,18.84c-0.42,0.89-0.84,1.77-1.26,2.66
									c-0.07,0.15,0.32,0.11,0.35,0.1c6.27-1.32,12.55-2.64,18.82-3.96c0.89-0.19,1.79-0.38,2.68-0.56
									c0.03-0.01,0.61-0.15,0.51-0.29c-3.3-4.96-6.61-9.91-9.91-14.87c-0.47-0.7-0.94-1.41-1.41-2.11
									C402.91,453.81,402.11,454.15,402.19,454.27z"/>
							</g>
						</g>
						<g>
							<g>
								<path class="st4" d="M360.19,454.27c3.3,4.96,6.61,9.91,9.91,14.87c0.47,0.7,0.94,1.41,1.41,2.11
									c0.17-0.09,0.35-0.18,0.52-0.27c-6.27,1.32-12.55,2.64-18.82,3.96c-0.89,0.19-1.79,0.38-2.68,0.56
									c0.12,0.03,0.23,0.05,0.35,0.08c2.97-6.28,5.95-12.56,8.92-18.84c0.42-0.89,0.84-1.77,1.26-2.66
									c0.06-0.12-0.76-0.06-0.86,0.16c-2.97,6.28-5.95,12.56-8.92,18.84c-0.42,0.89-0.84,1.77-1.26,2.66
									c-0.07,0.14,0.32,0.08,0.35,0.08c6.27-1.32,12.55-2.64,18.82-3.96c0.89-0.19,1.79-0.38,2.68-0.56
									c0.02-0.01,0.6-0.15,0.52-0.27c-3.3-4.96-6.61-9.91-9.91-14.87c-0.47-0.7-0.94-1.41-1.41-2.11
									C360.93,453.83,360.13,454.17,360.19,454.27z"/>
							</g>
						</g>
						<g>
							<g>
								<path class="st4" d="M318.2,454.27c3.3,4.96,6.61,9.91,9.91,14.87c0.47,0.7,0.94,1.41,1.41,2.11
									c0.17-0.1,0.34-0.2,0.51-0.31c-6.27,1.32-12.55,2.64-18.82,3.96c-0.89,0.19-1.79,0.38-2.68,0.56
									c0.12,0.04,0.24,0.08,0.36,0.12c2.97-6.28,5.95-12.56,8.92-18.84c0.42-0.89,0.84-1.77,1.26-2.66
									c0.08-0.18-0.75-0.1-0.87,0.14c-2.97,6.28-5.95,12.56-8.92,18.84c-0.42,0.89-0.84,1.77-1.26,2.66
									c-0.08,0.16,0.31,0.13,0.36,0.12c6.27-1.32,12.55-2.64,18.82-3.96c0.89-0.19,1.79-0.38,2.68-0.56
									c0.04-0.01,0.61-0.16,0.51-0.31c-3.3-4.96-6.61-9.91-9.91-14.87c-0.47-0.7-0.94-1.41-1.41-2.11
									C318.91,453.8,318.1,454.13,318.2,454.27z"/>
							</g>
						</g>
						<g>
							<g>
								<path class="st4" d="M276.24,454.35c3.3,4.96,6.61,9.91,9.91,14.87c0.47,0.7,0.94,1.41,1.41,2.11
									c0.11-0.16,0.21-0.32,0.32-0.49c-6.27,1.32-12.55,2.64-18.82,3.96c-0.89,0.19-1.79,0.38-2.68,0.56
									c0.17,0.11,0.33,0.23,0.5,0.34c2.97-6.28,5.95-12.56,8.92-18.84c0.42-0.89,0.84-1.77,1.26-2.66
									c0.21-0.44-0.67-0.44-0.83-0.09c-2.97,6.28-5.95,12.56-8.92,18.84c-0.42,0.89-0.84,1.77-1.26,2.66
									c-0.15,0.32,0.29,0.39,0.5,0.34c6.27-1.32,12.55-2.64,18.82-3.96c0.89-0.19,1.79-0.38,2.68-0.56
									c0.2-0.04,0.47-0.26,0.32-0.49c-3.3-4.96-6.61-9.91-9.91-14.87c-0.47-0.7-0.94-1.41-1.41-2.11
									C276.82,453.64,275.99,453.97,276.24,454.35z"/>
							</g>
						</g>
						<g>
							<g>
								<path class="st4" d="M234.24,454.32c3.3,4.96,6.61,9.91,9.91,14.87c0.47,0.7,0.94,1.41,1.41,2.11
									c0.12-0.13,0.23-0.25,0.35-0.38c-6.27,1.32-12.55,2.64-18.82,3.96c-0.89,0.19-1.79,0.38-2.68,0.56
									c0.16,0.05,0.33,0.1,0.49,0.15c2.97-6.28,5.95-12.56,8.92-18.84c0.42-0.89,0.84-1.77,1.26-2.66
									c0.12-0.24-0.74-0.16-0.87,0.12c-2.97,6.28-5.95,12.56-8.92,18.84c-0.42,0.89-0.84,1.77-1.26,2.66
									c-0.11,0.23,0.44,0.16,0.49,0.15c6.27-1.32,12.55-2.64,18.82-3.96c0.89-0.19,1.79-0.38,2.68-0.56
									c0.14-0.03,0.48-0.18,0.35-0.38c-3.3-4.96-6.61-9.91-9.91-14.87c-0.47-0.7-0.94-1.41-1.41-2.11
									C234.9,453.76,234.05,454.04,234.24,454.32z"/>
							</g>
						</g>
						<g>
							<g>
								<path class="st4" d="M192.24,454.32c3.3,4.96,6.61,9.91,9.91,14.87c0.47,0.7,0.94,1.41,1.41,2.11
									c0.12-0.11,0.24-0.23,0.36-0.34c-6.27,1.32-12.55,2.64-18.82,3.96c-0.89,0.19-1.79,0.38-2.68,0.56
									c0.16,0.04,0.32,0.08,0.48,0.12c2.97-6.28,5.95-12.56,8.92-18.84c0.42-0.89,0.84-1.77,1.26-2.66
									c0.1-0.21-0.75-0.13-0.87,0.13c-2.97,6.28-5.95,12.56-8.92,18.84c-0.42,0.89-0.84,1.77-1.26,2.66
									c-0.1,0.21,0.44,0.13,0.48,0.12c6.27-1.32,12.55-2.64,18.82-3.96c0.89-0.19,1.79-0.38,2.68-0.56
									c0.12-0.03,0.48-0.17,0.36-0.34c-3.3-4.96-6.61-9.91-9.91-14.87c-0.47-0.7-0.94-1.41-1.41-2.11
									C192.92,453.79,192.07,454.06,192.24,454.32z"/>
							</g>
						</g>
						<g>
							<g>
								<path class="st4" d="M150.25,454.33c3.3,4.96,6.61,9.91,9.91,14.87c0.47,0.7,0.94,1.41,1.41,2.11
									c0.11-0.13,0.23-0.27,0.34-0.4c-6.27,1.32-12.55,2.64-18.82,3.96c-0.89,0.19-1.79,0.38-2.68,0.56
									c0.16,0.08,0.31,0.16,0.47,0.24c2.97-6.28,5.95-12.56,8.92-18.84c0.42-0.89,0.84-1.77,1.26-2.66
									c0.18-0.39-0.69-0.29-0.82-0.03c-2.97,6.28-5.95,12.56-8.92,18.84c-0.42,0.89-0.84,1.77-1.26,2.66
									c-0.14,0.29,0.3,0.27,0.47,0.24c6.27-1.32,12.55-2.64,18.82-3.96c0.89-0.19,1.79-0.38,2.68-0.56
									c0.15-0.03,0.48-0.2,0.34-0.4c-3.3-4.96-6.61-9.91-9.91-14.87c-0.47-0.7-0.94-1.41-1.41-2.11
									C150.89,453.73,150.04,454.02,150.25,454.33z"/>
							</g>
						</g>
						<g>
							<g>
								<path class="st4" d="M108.22,454.27c3.3,4.96,6.61,9.91,9.91,14.87c0.47,0.7,0.94,1.41,1.41,2.11
									c0.17-0.1,0.34-0.19,0.52-0.29c-6.27,1.32-12.55,2.64-18.82,3.96c-0.89,0.19-1.79,0.38-2.68,0.56
									c0.12,0.03,0.23,0.06,0.35,0.09c2.97-6.28,5.95-12.56,8.92-18.84c0.42-0.89,0.84-1.77,1.26-2.66
									c0.07-0.14-0.75-0.08-0.86,0.15c-2.97,6.28-5.95,12.56-8.92,18.84c-0.42,0.89-0.84,1.77-1.26,2.66
									c-0.07,0.15,0.32,0.1,0.35,0.09c6.27-1.32,12.55-2.64,18.82-3.96c0.89-0.19,1.79-0.38,2.68-0.56
									c0.03-0.01,0.6-0.15,0.52-0.29c-3.3-4.96-6.61-9.91-9.91-14.87c-0.47-0.7-0.94-1.41-1.41-2.11
									C108.95,453.82,108.14,454.16,108.22,454.27z"/>
							</g>
						</g>
						<g>
							<g>
								<path class="st4" d="M66.26,454.34c3.3,4.96,6.61,9.91,9.91,14.87c0.47,0.7,0.94,1.41,1.41,2.11
									c0.11-0.14,0.22-0.29,0.34-0.43c-6.27,1.32-12.55,2.64-18.82,3.96c-0.89,0.19-1.79,0.38-2.68,0.56
									c0.16,0.09,0.32,0.19,0.48,0.28c2.97-6.28,5.95-12.56,8.92-18.84c0.42-0.89,0.84-1.77,1.26-2.66
									c0.2-0.41-0.68-0.35-0.82-0.05c-2.97,6.28-5.95,12.56-8.92,18.84c-0.42,0.89-0.84,1.77-1.26,2.66
									c-0.15,0.31,0.29,0.32,0.48,0.28c6.27-1.32,12.55-2.64,18.82-3.96c0.89-0.19,1.79-0.38,2.68-0.56
									c0.17-0.04,0.47-0.22,0.34-0.43c-3.3-4.96-6.61-9.91-9.91-14.87c-0.47-0.7-0.94-1.41-1.41-2.11
									C66.88,453.7,66.03,454,66.26,454.34z"/>
							</g>
						</g>
						<g>
							<g>
								<path class="st4" d="M444.18,454.27c3.3,4.96,6.61,9.91,9.91,14.87c0.47,0.7,0.94,1.41,1.41,2.11
									c0.17-0.09,0.35-0.18,0.52-0.27c-6.27,1.32-12.55,2.64-18.82,3.96c-0.89,0.19-1.79,0.38-2.68,0.56
									c0.12,0.03,0.23,0.05,0.35,0.08c2.97-6.28,5.95-12.56,8.92-18.84c0.42-0.89,0.84-1.77,1.26-2.66
									c0.06-0.12-0.76-0.06-0.86,0.16c-2.97,6.28-5.95,12.56-8.92,18.84c-0.42,0.89-0.84,1.77-1.26,2.66
									c-0.07,0.14,0.32,0.08,0.35,0.08c6.27-1.32,12.55-2.64,18.82-3.96c0.89-0.19,1.79-0.38,2.68-0.56
									c0.03-0.01,0.6-0.15,0.52-0.27c-3.3-4.96-6.61-9.91-9.91-14.87c-0.47-0.7-0.94-1.41-1.41-2.11
									C444.92,453.83,444.12,454.17,444.18,454.27z"/>
							</g>
						</g>
					</g>
				</g>
			</g>
		</g>
	</g>
	<g>
		<g>
			<path class="st5" d="M213.21,245.62c0,0-36.74-9.08-68.85,4.41c-32.11,13.49-27.62-77.62-25.11-80.82
				c2.51-3.19,61.78-39.21,61.78-39.21L213.21,245.62z"/>
			<path class="st5" d="M276.79,244.35c0,0,37.22-6.88,68.46,8.5c31.25,15.37,32.19-75.84,29.88-79.18
				c-2.31-3.34-59.34-42.82-59.34-42.82L276.79,244.35z"/>
		</g>
		<g>
			<path class="st1" d="M177,160.38c-7.17-22.25-24.16-17.1-25.75-16.56c-1.67,0.19-19.22,2.8-16.19,25.98
				c3.05,23.32,16.58,35.96,29.27,32.25C177.39,199.98,184.22,182.77,177,160.38z"/>
			<path class="st1" d="M320.22,160.38c7.17-22.25,24.16-17.1,25.75-16.56c1.67,0.19,19.22,2.8,16.19,25.98
				c-3.05,23.32-16.58,35.96-29.27,32.25C319.84,199.98,313.01,182.77,320.22,160.38z"/>
			<path class="st0" d="M159.6,126.67c8.89-97.56,83.05-92.09,90.05-91.36c6.99-0.73,81.16-6.2,90.05,91.36
				c8.94,98.14-34.77,162.23-90.05,158.7C194.37,288.9,150.66,224.81,159.6,126.67z"/>
		</g>
		<g>
			<g>
				<path class="st6" d="M149.17,149.78l24.96,19.21l60.36,3.01c0,0,17.7-19.61,36.83-0.96l55.49,0.96l23.73-19.25"/>
				
					<ellipse transform="matrix(0.9807 -0.1957 0.1957 0.9807 -29.1719 43.3639)" class="st7" cx="204.83" cy="169.29" rx="30.17" ry="30.17"/>
				
					<ellipse transform="matrix(0.3498 -0.9368 0.9368 0.3498 35.2115 389.311)" class="st7" cx="298.08" cy="169.29" rx="30.17" ry="30.17"/>
			</g>
			<g>
				<g>
					<path class="st1" d="M262.44,174.97c0.74,2.35,1.41,4.72,2.04,7.1c0.62,2.38,1.2,4.77,1.75,7.16c0.53,2.4,1.08,4.79,1.55,7.2
						c0.5,2.41,0.94,4.82,1.37,7.24l0.06,0.36l-0.24,0.23c-1.91,1.9-3.84,3.78-5.78,5.65c-1.97,1.84-3.9,3.72-5.91,5.52
						c1.73-2.07,3.54-4.07,5.31-6.11c1.8-2.01,3.61-4,5.43-5.98l-0.17,0.6c-0.59-2.39-1.15-4.78-1.66-7.18
						c-0.54-2.4-1.01-4.81-1.48-7.22c-0.46-2.41-0.89-4.83-1.28-7.26C263.04,179.86,262.71,177.42,262.44,174.97z"/>
				</g>
				<path class="st8" d="M287.46,232.97c-17.66,17.16-47.57,16.21-70.22,0.92"/>
				<g>
					<path class="st4" d="M319.59,141.89c-3.38-3.03-7-5.68-10.86-7.8c-1.94-1.03-3.92-1.97-5.98-2.64
						c-2.04-0.7-4.15-1.18-6.28-1.34c-4.25-0.42-8.54,0.44-12.48,2.27c-3.93,1.86-7.53,4.55-10.93,7.57
						c2.55-3.76,5.9-7.07,9.96-9.44c2.04-1.16,4.25-2.08,6.57-2.61c2.33-0.51,4.74-0.66,7.12-0.47c4.77,0.43,9.26,2.3,13.1,4.87
						C313.67,134.87,317.04,138.11,319.59,141.89z"/>
				</g>
				<g>
					<path class="st4" d="M227.21,141.89c-3.38-3.03-7-5.68-10.86-7.8c-1.94-1.03-3.92-1.97-5.98-2.64
						c-2.04-0.7-4.15-1.18-6.28-1.34c-4.25-0.42-8.54,0.44-12.48,2.27c-3.93,1.86-7.53,4.55-10.93,7.57
						c2.55-3.76,5.9-7.07,9.96-9.44c2.04-1.16,4.25-2.08,6.57-2.61c2.33-0.51,4.74-0.66,7.12-0.47c4.77,0.43,9.26,2.3,13.1,4.87
						C221.28,134.87,224.66,138.11,227.21,141.89z"/>
				</g>
				<g>
					<path class="st4" d="M224.28,177.24c-0.34-2.11-0.89-4.19-1.68-6.15c-0.76-1.97-1.76-3.86-3.07-5.48
						c-1.31-1.61-2.89-3-4.75-3.87c-1.84-0.92-3.89-1.33-5.96-1.36c-1.03-0.03-2.08,0.05-3.09,0.19c-1.01,0.18-2.01,0.44-2.95,0.83
						c-1.88,0.79-3.51,2.12-4.7,3.8c-1.21,1.68-2,3.67-2.49,5.72c-0.53,2.05-0.76,4.18-0.76,6.33c-0.44-4.24,0.11-8.78,2.49-12.56
						c1.17-1.89,2.98-3.39,5.01-4.32c1.03-0.46,2.12-0.74,3.21-0.95c1.1-0.16,2.2-0.25,3.31-0.23c2.21,0.05,4.45,0.5,6.44,1.54
						c1.99,1.01,3.7,2.54,4.98,4.33C222.83,168.64,224.04,172.97,224.28,177.24z"/>
				</g>
				<g>
					<path class="st4" d="M307.29,175.9c-0.34-2.11-0.89-4.19-1.68-6.15c-0.76-1.97-1.76-3.86-3.07-5.48
						c-1.31-1.61-2.89-3-4.75-3.87c-1.84-0.92-3.89-1.33-5.96-1.36c-1.03-0.03-2.08,0.05-3.09,0.18c-1.01,0.18-2.01,0.44-2.95,0.83
						c-1.88,0.79-3.51,2.12-4.7,3.8c-1.21,1.68-2,3.67-2.49,5.72c-0.53,2.05-0.76,4.18-0.76,6.33c-0.44-4.24,0.11-8.78,2.49-12.56
						c1.17-1.89,2.98-3.39,5.01-4.32c1.03-0.46,2.12-0.74,3.21-0.95c1.1-0.16,2.2-0.25,3.31-0.23c2.21,0.05,4.45,0.5,6.44,1.54
						c1.99,1.01,3.7,2.54,4.98,4.33C305.85,167.3,307.06,171.63,307.29,175.9z"/>
				</g>
			</g>
		</g>
		<g>
			<path class="st9" d="M163.22,23.72c0,0,27.74-35.4,83.23-12.44c31.57-20.09,55.49-10.52,78.45,6.7l-73.66,37.31L163.22,23.72z"/>
			<g>
				<g>
					<path class="st9" d="M62.28,229.75c-3.27-10.16-5.35-20.82-5.08-31.6c0.18-5.38,0.99-10.75,2.5-15.94
						c1.55-5.17,3.81-10.14,6.69-14.72c5.79-9.2,14.1-16.53,23.14-22.35c4.53-2.91,9.36-5.38,14.14-7.75l3.5-1.83
						c1.13-0.67,2.22-1.41,3.33-2.1c1.14-0.66,2.12-1.54,3.17-2.32c0.52-0.4,1.04-0.79,1.55-1.21l1.44-1.34
						c3.88-3.52,7.19-7.65,9.88-12.18c2.71-4.51,4.77-9.41,6.49-14.42c3.44-10.04,5.41-20.56,7.97-30.95
						c2.54-10.37,5.54-20.84,10.94-30.2c2.69-4.66,6.06-8.94,9.99-12.61c3.92-3.68,8.39-6.7,13.14-9.15
						c-4.65,2.64-8.99,5.8-12.77,9.53c-3.78,3.73-6.98,8.04-9.5,12.71c-5.14,9.32-7.95,19.69-10.3,30.07
						c-2.31,10.4-4.34,20.95-7.75,31.19c-1.72,5.1-3.8,10.13-6.57,14.8c-2.75,4.68-6.16,9-10.17,12.68l-1.51,1.38
						c-0.53,0.43-1.08,0.83-1.62,1.25c-1.1,0.81-2.12,1.71-3.3,2.39c-1.15,0.72-2.29,1.47-3.46,2.16l-3.62,1.87
						c-4.8,2.34-9.52,4.72-14,7.57c-8.93,5.66-17,12.83-22.83,21.65c-2.89,4.42-5.17,9.22-6.77,14.26
						c-1.57,5.05-2.45,10.31-2.73,15.61C57.58,208.81,59.44,219.46,62.28,229.75z"/>
				</g>
				<g>
					<path class="st9" d="M252.79,67.66c-2.4-1.16-4.9-2.08-7.44-2.82c-2.54-0.76-5.13-1.32-7.75-1.62
						c-5.21-0.62-10.63-0.15-15.27,2.15c-2.31,1.13-4.41,2.66-6.19,4.52c-1.77,1.87-3.2,4.04-4.39,6.33
						c-2.31,4.62-3.71,9.77-4.84,14.89c-1.11,5.15-1.79,10.39-2.55,15.66c-0.75,5.27-1.52,10.59-2.87,15.83
						c-1.3,5.25-3.28,10.37-5.88,15.16c-2.64,4.76-5.91,9.16-9.58,13.14c-3.69,3.97-7.77,7.53-12.05,10.79
						c-1.05,0.84-2.16,1.61-3.25,2.39c-1.09,0.79-2.18,1.57-3.31,2.3c-1.09,0.75-2.29,1.49-3.29,2.23
						c-1.01,0.76-2.09,1.44-2.97,2.34c-1.94,1.62-3.37,3.71-4.59,5.87l-0.77,1.71l-0.2,0.43l-0.14,0.45l-0.28,0.9
						c-0.44,1.18-0.59,2.45-0.84,3.69c-0.29,2.52-0.4,5.1-0.14,7.68c0.17,2.58,0.62,5.17,1.13,7.74c2.2,10.29,6.12,20.24,9.03,30.51
						c1.39,5.15,2.64,10.4,2.9,15.78c0.16,2.68-0.06,5.38-0.56,8.01c-0.63,2.62-1.71,5.1-3.19,7.31c1.37-2.29,2.29-4.8,2.76-7.39
						c0.38-2.61,0.49-5.25,0.22-7.88c-0.47-5.26-1.91-10.38-3.49-15.42c-3.16-10.11-7.32-19.95-9.85-30.43
						c-1.23-5.23-2-10.71-1.33-16.25c0.4-2.75,1.14-5.49,2.39-8.03c1.33-2.47,2.96-4.85,5.08-6.69c0.98-1.02,2.14-1.79,3.26-2.62
						c1.13-0.84,2.2-1.5,3.3-2.26c1.1-0.72,2.18-1.48,3.23-2.26c1.06-0.78,2.14-1.53,3.16-2.35c4.17-3.2,8.11-6.68,11.65-10.52
						c3.56-3.82,6.69-8.01,9.23-12.54c2.5-4.55,4.38-9.43,5.71-14.49c2.72-10.11,3.33-20.84,5.9-31.29
						c1.29-5.22,2.82-10.4,5.39-15.25c1.32-2.39,2.9-4.66,4.84-6.61c1.95-1.94,4.24-3.55,6.75-4.66c5.05-2.26,10.7-2.47,15.97-1.63
						C243.01,63.31,248.11,65.13,252.79,67.66z"/>
				</g>
				<path class="st9" d="M170.11,17.98c-47.83,29.66-13.39,96.63-63.14,124.37C57.22,170.09,62,208.36,72.53,236.1
					c3.74,9.86,14.13,15.23,25.95,18.08c-3.66-14.38-6.57-34.84-1.28-54.44c0,0-3.78,33.41,7.59,55.71
					c6.09,1.01,12.31,1.48,18.02,1.64c-1.46-5.8-2.49-13.06-1.69-21c0,0,2.07,10.32,6.4,21.05c10.72-0.01,18.67-0.96,18.67-0.96
					c19.13-22.96-27.74-75.58,7.65-93.76c52.25-26.83,40.18-53.57,54.53-83.23s40.94-9.57,40.94-9.57
					C254.1,13.2,217.94-11.68,170.11,17.98z"/>
			</g>
			<g>
				<g>
					<path class="st9" d="M432.73,229.75c2.84-10.28,4.7-20.93,4.11-31.56c-0.29-5.3-1.16-10.56-2.73-15.61
						c-1.61-5.04-3.89-9.84-6.77-14.26c-5.83-8.82-13.89-15.99-22.83-21.65c-4.48-2.84-9.2-5.22-14-7.57l-3.62-1.87
						c-1.17-0.69-2.3-1.44-3.46-2.16c-1.18-0.68-2.21-1.58-3.3-2.39c-0.54-0.42-1.09-0.82-1.62-1.25l-1.51-1.38
						c-4.02-3.68-7.43-8-10.17-12.68c-2.77-4.68-4.85-9.7-6.57-14.8c-3.41-10.23-5.43-20.78-7.75-31.19
						c-2.35-10.37-5.15-20.75-10.3-30.07c-2.52-4.67-5.72-8.98-9.5-12.71c-3.78-3.74-8.12-6.89-12.77-9.53
						c4.75,2.45,9.23,5.47,13.14,9.15c3.93,3.66,7.29,7.94,9.99,12.61c5.4,9.36,8.4,19.83,10.94,30.2
						c2.56,10.39,4.53,20.91,7.97,30.95c1.72,5.01,3.78,9.9,6.49,14.42c2.69,4.52,6,8.66,9.88,12.18l1.44,1.34
						c0.51,0.42,1.03,0.81,1.55,1.21c1.05,0.78,2.03,1.66,3.17,2.32c1.11,0.7,2.2,1.43,3.33,2.1l3.5,1.83
						c4.79,2.37,9.61,4.84,14.14,7.75c9.03,5.82,17.35,13.15,23.14,22.35c2.88,4.58,5.14,9.55,6.69,14.72
						c1.52,5.19,2.33,10.56,2.5,15.94C438.07,208.92,436,219.59,432.73,229.75z"/>
				</g>
				<g>
					<path class="st9" d="M242.22,67.66c4.68-2.54,9.78-4.35,15.08-5.2c5.27-0.84,10.92-0.63,15.97,1.63
						c2.51,1.11,4.8,2.73,6.75,4.66c1.94,1.96,3.52,4.22,4.84,6.61c2.57,4.85,4.1,10.03,5.39,15.25c2.57,10.46,3.17,21.19,5.9,31.29
						c1.32,5.06,3.21,9.93,5.71,14.49c2.54,4.53,5.67,8.72,9.23,12.54c3.54,3.84,7.49,7.31,11.65,10.52
						c1.02,0.83,2.1,1.58,3.16,2.35c1.06,0.78,2.13,1.54,3.23,2.26c1.1,0.76,2.17,1.42,3.3,2.26c1.12,0.83,2.28,1.6,3.26,2.62
						c2.12,1.84,3.75,4.22,5.08,6.69c1.25,2.54,2,5.27,2.39,8.03c0.66,5.53-0.1,11.01-1.33,16.25c-2.53,10.49-6.69,20.32-9.85,30.43
						c-1.58,5.04-3.03,10.17-3.49,15.42c-0.26,2.63-0.16,5.27,0.22,7.88c0.47,2.6,1.4,5.1,2.76,7.39c-1.49-2.21-2.57-4.69-3.19-7.31
						c-0.5-2.63-0.72-5.33-0.56-8.01c0.26-5.37,1.51-10.62,2.9-15.78c2.91-10.28,6.83-20.22,9.03-30.51
						c0.51-2.57,0.96-5.15,1.13-7.74c0.26-2.58,0.15-5.16-0.14-7.68c-0.25-1.24-0.41-2.51-0.84-3.69l-0.28-0.9l-0.14-0.45l-0.2-0.43
						l-0.77-1.71c-1.22-2.16-2.65-4.25-4.59-5.87c-0.87-0.9-1.96-1.59-2.97-2.34c-1-0.75-2.2-1.49-3.29-2.23
						c-1.13-0.73-2.22-1.5-3.31-2.3c-1.09-0.79-2.2-1.55-3.25-2.39c-4.28-3.26-8.36-6.82-12.05-10.79
						c-3.67-3.98-6.94-8.38-9.58-13.14c-2.59-4.79-4.58-9.91-5.88-15.16c-1.35-5.24-2.12-10.57-2.87-15.84
						c-0.75-5.27-1.44-10.51-2.55-15.66c-1.13-5.12-2.53-10.27-4.84-14.89c-1.19-2.29-2.63-4.46-4.39-6.33
						c-1.77-1.86-3.88-3.39-6.19-4.52c-4.64-2.31-10.06-2.77-15.27-2.15c-2.62,0.31-5.21,0.86-7.75,1.62
						C247.12,65.59,244.62,66.51,242.22,67.66z"/>
				</g>
				<path class="st9" d="M388.04,142.35c-49.75-27.74-15.31-94.71-63.14-124.37c-47.83-29.66-80.36-4.78-75.58,51.66
					c0,0,22.96-20.09,37.31,9.57c14.35,29.66,2.28,56.4,54.53,83.23c35.4,18.18-11.48,70.8,7.65,93.76c0,0,15.2,1.83,31.92,0.44
					c3.13-7.99,6.5-19.49,8.26-34.88c0,0,2.76,16.6-2.23,34.22c4.35-0.58,8.69-1.42,12.8-2.59c1.62-4.62,3.01-9.54,3.78-14.41
					c0,0,0.38,5.66-0.42,13.35c9.05-3.14,16.51-8.19,19.56-16.22C433,208.36,437.79,170.09,388.04,142.35z"/>
			</g>
		</g>
	</g>
</g>
</svg>
